<?xml version="1.0" encoding="UTF-8" standalone="no"?>
<!-- Created with Inkscape (http://www.inkscape.org/) -->

<svg
   xmlns:dc="http://purl.org/dc/elements/1.1/"
   xmlns:cc="http://creativecommons.org/ns#"
   xmlns:rdf="http://www.w3.org/1999/02/22-rdf-syntax-ns#"
   xmlns:svg="http://www.w3.org/2000/svg"
   xmlns="http://www.w3.org/2000/svg"
   xmlns:sodipodi="http://sodipodi.sourceforge.net/DTD/sodipodi-0.dtd"
   xmlns:inkscape="http://www.inkscape.org/namespaces/inkscape"
   width="207"
   height="56"
   viewBox="0 0 350.30772 140.00001"
   id="svg3492"
   version="1.1"
   inkscape:version="0.91 r13725"
   sodipodi:docname="logo.svg">
  <defs
     id="defs3494" />
  <sodipodi:namedview
     id="base"
     pagecolor="#ffffff"
     bordercolor="#666666"
     borderopacity="1.0"
     inkscape:pageopacity="0.0"
     inkscape:pageshadow="2"
     inkscape:zoom="1.7928894"
     inkscape:cx="60.437446"
     inkscape:cy="27.034357"
     inkscape:document-units="px"
     inkscape:current-layer="layer1"
     showgrid="false"
     units="px"
     inkscape:window-width="1301"
     inkscape:window-height="744"
     inkscape:window-x="65"
     inkscape:window-y="24"
     inkscape:window-maximized="1" />
  <metadata
     id="metadata3497">
    <rdf:RDF>
      <cc:Work
         rdf:about="">
        <dc:format>image/svg+xml</dc:format>
        <dc:type
           rdf:resource="http://purl.org/dc/dcmitype/StillImage" />
        <dc:title></dc:title>
      </cc:Work>
    </rdf:RDF>
  </metadata>
  <g
     inkscape:groupmode="layer"
     id="layer1"
     inkscape:label="LOGO"
     style="display:inline"
     transform="translate(0,-71.576)">
    <g
       id="g4240"
       transform="matrix(1.5257836,0,0,1.2085148,-92.767571,-4.4202412)">
      <path
         d="m 41.464201,152.73675 c -0.93674,0.635 -2.037389,1.20178 -3.303586,1.69089 -1.099828,0.42299 -2.39307,0.81029 -3.880542,1.16505 -1.485016,0.35056 -3.191308,0.5269 -5.117239,0.5269 -3.083945,0 -5.984314,-0.5458 -8.709302,-1.63842 -2.724168,-1.09262 -5.105767,-2.59144 -7.142335,-4.49331 -2.035748,-1.90501 -3.6461548,-4.1228 -4.8287603,-6.66071 -1.184246,-2.53792 -1.775117,-5.25006 -1.775117,-8.14065 0,-2.89058 0.590871,-5.60482 1.775117,-8.14274 1.1826055,-2.53686 2.7930123,-4.75781 4.8287603,-6.66071 2.036568,-1.90397 4.418167,-3.39859 7.142335,-4.49226 2.724988,-1.09158 5.625357,-1.63947 8.709302,-1.63947 3.410948,0 6.880082,0.77565 10.401661,2.32485 l 2.146391,9.09472 c -1.266197,-2.67856 -3.012646,-4.7578 -5.242629,-6.23772 -2.227522,-1.48203 -4.664032,-2.21989 -7.305423,-2.21989 -1.981656,0 -3.837929,0.45762 -5.572086,1.37181 -1.734977,0.91945 -3.248674,2.1863 -4.541096,3.80688 -1.294883,1.62477 -2.31112,3.52663 -3.053625,5.70978 -0.744146,2.18526 -1.116222,4.54684 -1.116222,7.08475 0,2.53582 0.372076,4.9163 1.116222,7.13619 0.742505,2.21988 1.758742,4.15954 3.053625,5.81579 1.292422,1.65416 2.806119,2.95881 4.541096,3.91183 1.734157,0.95093 3.59043,1.4264 5.572086,1.4264 2.641391,0 5.063148,-0.84492 7.264445,-2.53792 2.202117,-1.69089 3.879728,-3.80477 5.036922,-6.34479 l 0,8.14275 z"
         style="fill:#ffffff;fill-opacity:1;fill-rule:nonzero;stroke:none"
         id="path3530-9-6-1"
         inkscape:connector-curvature="0" />
      <path
         d="m 89.426752,154.85031 -11.639998,0 0,-1.37392 c -1.597288,0.91629 -3.467493,1.56705 -5.613878,1.95644 -2.146392,0.3873 -4.376368,0.58147 -6.687488,0.58147 -2.641391,0 -5.147559,-0.22881 -7.51195,-0.68853 -2.367659,-0.45867 -4.457498,-1.19654 -6.274433,-2.21989 -1.816928,-1.02125 -3.260966,-2.34164 -4.334569,-3.96222 -1.072788,-1.62161 -1.608766,-3.59589 -1.608766,-5.92074 0,-1.90501 0.4237,-3.5959 1.278489,-5.07793 0.853142,-1.47783 2.241455,-2.74679 4.169841,-3.80583 1.925931,-1.05588 4.468983,-1.86617 7.63734,-2.43086 3.162621,-0.56363 7.057096,-0.84597 11.68015,-0.84597 0.275372,0 0.604829,0.0189 0.990831,0.0525 0.383548,0.0378 0.796597,0.0546 1.238331,0.0546 0.495006,0.0693 1.017057,0.10601 1.568609,0.10601 l 0,0.6329 c 0,0.21097 0.01314,0.45972 0.04176,0.74101 0.02535,0.28025 0.04176,0.56363 0.04176,0.84492 -0.606463,-0.0692 -1.226039,-0.10495 -1.858727,-0.10495 l -2.022635,0 c -2.421757,0 -4.650099,0.10495 -6.686667,0.31593 -2.037389,0.21201 -3.810884,0.67173 -5.325407,1.37496 -1.513697,0.70533 -2.697116,1.6909 -3.550265,2.95986 -0.854783,1.26896 -1.307176,2.9609 -1.362081,5.07583 0,1.33928 0.24832,2.62608 0.742505,3.8583 0.496646,1.23433 1.266197,2.32485 2.313575,3.27788 1.043282,0.95093 2.378317,1.72868 4.003477,2.32695 1.6227,0.59827 3.508473,0.8974 5.654858,0.8974 1.869385,0 3.521585,-0.31489 4.954151,-0.95303 1.429284,-0.6329 2.626643,-1.37077 3.590423,-2.21989 0.962145,-0.84492 1.693184,-1.68879 2.188184,-2.53582 0.494191,-0.84702 0.742511,-1.47992 0.742511,-1.9029 l 0,-8.66859 c 0,-2.18526 -0.02874,-3.92968 -0.08359,-5.23643 -0.05576,-1.30149 -0.109823,-2.25452 -0.164729,-2.85279 -0.05576,-0.59932 -0.110643,-1.11152 -0.164728,-1.53346 -0.21964,-1.5492 -0.550738,-2.97664 -0.990832,-4.28233 -0.441734,-1.3036 -1.072788,-2.41512 -1.898065,-3.33036 -0.826103,-0.91525 -1.857092,-1.63737 -3.096244,-2.16741 -1.238331,-0.53005 -2.765961,-0.79349 -4.582895,-0.79349 -2.035748,0 -3.91988,0.44083 -5.653217,1.32353 -1.733336,0.88166 -3.291293,1.93755 -4.664032,3.16977 -1.378475,1.23537 -2.547141,2.55576 -3.510927,3.96641 -0.962965,1.4096 -1.718589,2.64288 -2.26932,3.69982 L 54.587825,116.684 c 1.101469,-0.42404 2.31194,-0.80924 3.633863,-1.16295 1.099828,-0.35266 2.351278,-0.65075 3.755158,-0.8995 1.40388,-0.24666 2.820052,-0.37051 4.250977,-0.37051 4.733691,0 8.406891,0.61926 11.021236,1.85043 2.613531,1.23433 4.541103,2.8549 5.779434,4.86382 1.237511,2.00892 1.967724,4.2477 2.188184,6.71424 0.21964,2.46864 0.330277,4.89951 0.330277,7.29467 l 0,0.21308 0,14.69429 c 0,0.4933 0.08114,0.91629 0.245865,1.27105 0.110638,0.35162 0.290119,0.63291 0.538439,0.84388 0.245866,0.21096 0.619576,0.31592 1.115402,0.31592 l 1.980016,2.53792 -0.08195,0 0.08195,0 z"
         style="fill:#ffffff;fill-opacity:1;fill-rule:nonzero;stroke:none"
         id="path3534-9-5-0"
         inkscape:connector-curvature="0" />
      <path
         d="m 116.67023,133.91691 c 3.19212,1.69194 5.46144,3.77328 6.81124,6.23668 1.34732,2.46865 1.72022,4.84912 1.11376,7.13618 -0.60647,2.29231 -2.27014,4.22986 -4.99431,5.8158 -2.72253,1.58698 -6.56291,2.38048 -11.51707,2.38048 -1.20965,0 -2.50288,-0.0903 -3.87972,-0.26451 -1.3752,-0.17843 -2.69713,-0.40619 -3.96168,-0.68853 -1.267833,-0.27919 -2.450439,-0.63395 -3.550267,-1.05589 -1.101468,-0.42299 -1.981663,-0.84492 -2.643031,-1.26896 l 0,-12.26554 c 0.93674,3.95067 2.684824,7.10364 5.244264,9.46313 2.557794,2.36368 5.488494,3.54238 8.790434,3.54238 2.58731,0 4.60831,-0.42404 6.06873,-1.26896 1.45797,-0.84492 2.37997,-1.84938 2.76597,-3.01338 0.38355,-1.16505 0.2475,-2.37838 -0.41305,-3.64733 -0.66138,-1.26896 -1.81529,-2.36159 -3.46749,-3.27789 l -10.73195,-5.70873 c -1.70629,-0.9163 -3.166715,-2.07715 -4.376366,-3.49095 -1.210465,-1.40645 -2.061973,-2.92207 -2.557799,-4.54579 -0.496646,-1.61952 -0.619576,-3.24009 -0.37289,-4.86066 0.24914,-1.62057 0.961325,-3.10259 2.146385,-4.44188 1.18424,-1.33823 2.86185,-2.41406 5.03692,-3.22645 2.17425,-0.80818 4.93858,-1.21542 8.29626,-1.21542 0.55073,0 1.25226,0.0378 2.1054,0.10601 0.85315,0.0714 1.77514,0.17633 2.76597,0.31802 0.99083,0.1417 1.96691,0.36946 2.93069,0.68644 0.96214,0.31802 1.82758,0.72526 2.60124,1.21542 l 2.06279,8.98767 c -1.37601,-2.60719 -3.09542,-4.72107 -5.15904,-6.34269 -2.06442,-1.62057 -4.49929,-2.43191 -7.30705,-2.43191 -2.20049,0 -3.96332,0.42299 -5.28197,1.26791 -1.32193,0.84597 -2.20212,1.85043 -2.64303,3.01338 -0.44174,1.164 -0.42699,2.37943 0.0402,3.64839 0.46796,1.26685 1.44568,2.29021 2.93233,3.06481 l 11.14417,6.13277 z"
         style="fill:#ffffff;fill-opacity:1;fill-rule:nonzero;stroke:none"
         id="path3538-4-7-2"
         inkscape:connector-curvature="0" />
      <path
         d="m 172.72586,155.90809 -3.87973,0 c -2.91839,0 -5.24426,-1.10943 -6.97596,-3.32931 -1.73498,-2.21989 -2.65697,-5.26791 -2.7676,-9.1451 l 0,-8.56469 c -0.0541,-3.31146 -0.5491,-6.27341 -1.48584,-8.88269 -0.38518,-1.12622 -0.89412,-2.21884 -1.52681,-3.27579 -0.63351,-1.05798 -1.40388,-2.00892 -2.31112,-2.85594 -0.90969,-0.84597 -1.98166,-1.51456 -3.22081,-2.00787 -1.23751,-0.49226 -2.68237,-0.74101 -4.33293,-0.74101 -0.93674,0 -1.80382,0.14169 -2.60123,0.42403 -0.79661,0.28234 -1.48666,0.61611 -2.0628,1.00446 -0.57778,0.38836 -1.19736,0.86382 -1.85873,1.4264 l 0,34.7856 0,0.10391 -9.65834,0 -1.98165,-2.53791 1.98165,0 c 0.4401,0 0.79742,-0.12281 1.07279,-0.36841 0.27455,-0.24666 0.46878,-0.54579 0.57778,-0.89846 0.16473,-0.35265 0.2475,-0.77459 0.2475,-1.26895 l 0,-34.78455 0,-24.741004 c -0.0541,-0.844922 -0.22046,-1.655208 -0.49419,-2.431906 -0.277,-0.632905 -0.6753,-1.215429 -1.19735,-1.744424 -0.52369,-0.527945 -1.25144,-0.793492 -2.18818,-0.793492 l 1.98165,-2.430857 c 2.91677,0 5.25492,1.127263 7.01695,3.382838 1.75956,2.257674 2.64139,5.252162 2.64139,8.988713 l 0,19.770132 0.0836,0.10496 c 0.71382,-0.1417 1.51205,-0.31698 2.39307,-0.529 0.77119,-0.14064 1.67842,-0.2624 2.7258,-0.3684 1.04328,-0.10706 2.19884,-0.15954 3.46504,-0.15954 3.96332,0 7.15544,0.79349 9.57884,2.37942 2.42011,1.58489 4.29113,3.47311 5.61306,5.65626 1.3211,2.18525 2.19966,4.47651 2.64139,6.87169 0.4401,2.39831 0.66138,4.3726 0.66138,5.92179 l 0,13.53241 c 0.0541,0.91839 0.21881,1.76226 0.49418,2.53791 0.27373,0.63501 0.67203,1.20073 1.19735,1.693 0.52206,0.49226 1.27931,0.73995 2.27015,0.73995 l 1.8997,2.53582 z"
         style="fill:#ffffff;fill-opacity:1;fill-rule:nonzero;stroke:none"
         id="path3542-4-1-9"
         inkscape:connector-curvature="0" />
      <path
         d="m 196.49905,153.37227 c 2.86185,0 5.43604,-0.95303 7.72012,-2.85804 2.28242,-1.89976 4.00347,-4.40094 5.15903,-7.50459 l 7.84304,0 c -0.8261,1.90187 -1.92675,3.64944 -3.30194,5.23537 -1.37684,1.58489 -2.95856,2.9588 -4.74599,4.1228 -1.78988,1.1598 -3.75679,2.06035 -5.90318,2.69325 -2.14803,0.63606 -4.40505,0.95409 -6.77108,0.95409 -3.08313,0 -5.98514,-0.54789 -8.7093,-1.63842 -2.72253,-1.09262 -5.10576,-2.57465 -7.1407,-4.44188 -2.03575,-1.86827 -3.63304,-4.06927 -4.78777,-6.60718 -1.1572,-2.53792 -1.73335,-5.25006 -1.73335,-8.14065 0,-2.89058 0.57615,-5.60482 1.73335,-8.14274 1.15473,-2.53792 2.75202,-4.7578 4.78777,-6.66176 2.03494,-1.90291 4.41817,-3.39754 7.1407,-4.49226 2.72416,-1.09053 5.62617,-1.63946 8.7093,-1.63946 2.80777,0 5.46145,0.45972 7.96844,1.37601 2.50288,0.91525 4.74598,2.16636 6.72764,3.75125 1.98166,1.58698 3.61747,3.45526 4.91235,5.60377 1.29161,2.15272 2.13164,4.49541 2.51765,7.03122 l -32.36219,0 c 0.11063,-1.26895 0.44009,-2.46444 0.99083,-3.59485 0.71382,0.35476 1.59565,0.61926 2.64221,0.79244 1.0441,0.17738 2.31193,0.22986 3.79695,0.16059 l 16.34582,0 c -0.93592,-3.66518 -2.64221,-6.66072 -5.11888,-8.98871 -2.47584,-2.32485 -5.2836,-3.4878 -8.42082,-3.4878 -1.98002,0 -3.83711,0.47442 -5.57208,1.4285 -1.73334,0.94988 -3.24786,2.25557 -4.5411,3.91183 -1.29325,1.65415 -2.30948,3.5938 -3.05199,5.8137 -0.74496,2.22198 -1.11622,4.60036 -1.11622,7.13827 0,2.53583 0.37126,4.89951 1.11622,7.08266 0.74251,2.18525 1.75874,4.10811 3.05199,5.76225 1.29324,1.65626 2.80776,2.95986 4.5411,3.91184 1.73497,0.95093 3.59206,1.42849 5.57208,1.42849"
         style="fill:#ffffff;fill-opacity:1;fill-rule:nonzero;stroke:none"
         id="path3546-1-2-2"
         inkscape:connector-curvature="0" />
      <path
         d="m 232.16204,96.17156 c 1.26619,0 2.35291,0.582523 3.26097,1.744422 0.90888,1.16295 1.36209,2.555758 1.36209,4.176328 0,1.62267 -0.45321,3.01338 -1.36209,4.17738 -0.90806,1.1619 -1.99477,1.74338 -3.26097,1.74338 -1.2662,0 -2.35292,-0.58148 -3.26097,-1.74338 -0.90724,-1.164 -1.36209,-2.55471 -1.36209,-4.17738 0,-1.62057 0.45485,-3.013378 1.36209,-4.176328 0.90805,-1.161899 1.99477,-1.744422 3.26097,-1.744422 m -5.03611,58.67854 -1.89806,-2.43086 1.89806,0 c 0.77038,0 1.27932,-0.29913 1.52927,-0.90055 0.24587,-0.59407 0.36962,-1.07164 0.36962,-1.4264 l 0,-27.59484 c -0.0549,-0.84492 -0.22128,-1.65416 -0.49501,-2.43086 -0.27536,-0.63396 -0.6753,-1.21648 -1.19735,-1.74337 -0.52287,-0.53005 -1.25144,-0.7935 -2.18818,-0.7935 l 1.98165,-2.43295 c 2.91677,0 5.25575,1.12831 7.01777,3.38284 1.76038,2.25662 2.64139,5.25425 2.64139,8.98871 l 0,22.41301 c 0,0.49435 0.0828,0.91629 0.24914,1.27105 0.27373,0.7767 0.85151,1.1598 1.73416,1.1598 l 1.98002,2.53792 -13.62248,0 z"
         style="fill:#ffffff;fill-opacity:1;fill-rule:nonzero;stroke:none"
         id="path3550-4-9-4"
         inkscape:connector-curvature="0" />
      <path
         d="m 277.7316,114.25091 -7.67503,7.61269 c -0.38601,-0.42193 -0.85479,-0.80924 -1.40388,-1.16189 -0.44174,-0.2813 -0.97936,-0.54685 -1.61041,-0.7935 -0.63351,-0.2477 -1.33668,-0.36946 -2.10459,-0.36946 -2.03821,0 -3.67403,0.47442 -4.91236,1.4264 -1.23915,0.95198 -2.18818,2.20309 -2.84955,3.75439 -0.65974,1.55025 -1.08672,3.26004 -1.27931,5.12726 -0.19341,1.86723 -0.2893,3.68407 -0.2893,5.4453 l 0,19.55811 -9.74193,0 -1.89806,-2.43086 1.89806,0 c 0.44009,0 0.79742,-0.10706 1.07442,-0.31803 0.27373,-0.21096 0.4819,-0.45552 0.61958,-0.73786 0.13604,-0.28339 0.21882,-0.56573 0.2475,-0.84912 0.0262,-0.27814 0.0402,-0.45448 0.0402,-0.5269 l 0,-27.38492 c -0.0557,-0.84388 -0.21882,-1.65521 -0.49418,-2.43086 -0.27537,-0.63291 -0.67449,-1.21543 -1.19736,-1.74338 -0.52369,-0.52899 -1.25227,-0.79244 -2.18819,-0.79244 l 1.89807,-2.53896 9.74193,0 0,6.34479 c 1.54156,-2.04357 3.2331,-3.7544 5.07708,-5.12727 1.84562,-1.37601 3.78384,-2.06349 5.82041,-2.06349 l 11.22694,0 z"
         style="fill:#ffffff;fill-opacity:1;fill-rule:nonzero;stroke:none"
         id="path3554-1-5-0"
         inkscape:connector-curvature="0" />
      <path
         d="m 332.80279,154.21898 c -1.3506,4.05247 -3.19293,7.577 -5.53192,10.57149 -2.3398,2.99764 -5.07872,5.35922 -8.21593,7.08476 -3.13641,1.72868 -6.49408,2.58934 -10.06975,2.58934 -3.57977,0 -6.95056,-0.86066 -10.11319,-2.58934 -3.16672,-1.72554 -5.91793,-4.08712 -8.25527,-7.08476 -2.3398,-2.99449 -4.18378,-6.51902 -5.53193,-10.57149 -1.34897,-4.05248 -2.02263,-8.37051 -2.02263,-12.95198 0,-4.58148 0.67366,-8.88271 2.02263,-12.90055 1.34815,-4.01679 3.19213,-7.52243 5.53193,-10.51797 2.33734,-2.99449 5.08855,-5.35607 8.25527,-7.0837 3.16263,-1.72658 6.53342,-2.59145 10.11319,-2.59145 3.57567,0 6.93334,0.86487 10.06975,2.59145 3.13721,1.72763 5.87613,4.08921 8.21593,7.0837 2.33899,2.99554 4.18132,6.50118 5.53192,10.51797 1.34816,4.01784 2.02347,8.31907 2.02347,12.90055 0,4.58147 -0.67531,8.8995 -2.02347,12.95198 m 8.91419,-27.33141 c -1.84233,-4.44082 -4.37308,-8.33481 -7.5939,-11.68301 -3.22163,-3.34715 -6.97514,-5.97429 -11.26874,-7.8751 -4.29441,-1.90396 -8.86092,-2.85699 -13.70443,-2.85699 -4.90005,0 -9.4936,0.95303 -13.7872,2.85699 -4.29442,1.90081 -8.04793,4.52795 -11.2671,7.8751 -3.22163,3.3482 -5.75239,7.24219 -7.59472,11.68301 -1.84562,4.44083 -2.7676,9.19864 -2.7676,14.27342 0,5.07583 0.92198,9.83363 2.7676,14.27341 1.84233,4.44083 4.37309,8.33587 7.59472,11.68302 3.21917,3.3482 6.97268,5.97323 11.2671,7.87614 4.2936,1.90397 8.88715,2.85595 13.7872,2.85595 4.84351,0 9.41002,-0.95198 13.70443,-2.85595 4.2936,-1.90291 8.04711,-4.52794 11.26874,-7.87614 3.22082,-3.34715 5.75157,-7.24219 7.5939,-11.68302 1.84398,-4.43978 2.76761,-9.19758 2.76761,-14.27341 0,-5.07478 -0.92363,-9.83259 -2.76761,-14.27342"
         style="fill:#ffffff;fill-opacity:1;fill-rule:nonzero;stroke:none"
         id="path3558-5-2-4"
         inkscape:connector-curvature="0" />
      <path
         d="m 288.35528,88.445616 c 0.30569,-0.389399 0.45648,-0.868014 0.45648,-1.440042 0,-0.56678 -0.15079,-1.048543 -0.45648,-1.434793 -0.30242,-0.391498 -0.67695,-0.585673 -1.12196,-0.585673 -0.44502,0 -0.81791,0.194175 -1.12196,0.585673 -0.30405,0.38625 -0.45649,0.868013 -0.45649,1.434793 0,0.572028 0.15244,1.050643 0.45649,1.440042 0.30405,0.388349 0.67694,0.584623 1.12196,0.584623 0.44501,0 0.81954,-0.196274 1.12196,-0.584623"
         style="fill:#f68712;fill-opacity:1;fill-rule:nonzero;stroke:none"
         id="path3562-2-6-7"
         inkscape:connector-curvature="0" />
      <path
         d="m 328.39135,95.209603 c -0.52697,0.700079 -1.23423,1.308843 -2.12426,1.826292 -0.89165,0.517449 -1.92346,0.856467 -3.09706,1.011808 -1.17522,0.155339 -2.4488,-0.0262 -3.82399,-0.54474 -1.25473,-0.361059 -2.48733,-1.099973 -3.70271,-2.21464 -1.21292,-1.115718 -2.19556,-2.514825 -2.94298,-4.198371 -0.75071,-1.685646 -1.17523,-3.615848 -1.27603,-5.793753 -0.0992,-2.176856 0.33273,-4.509051 1.30471,-6.994487 l -2.8512,-3.500392 0,6.451848 c 0.28029,0.157438 0.46305,0.417737 0.54418,0.779847 0.0402,0.20782 0.0623,0.388349 0.0623,0.54264 0,0.570978 -0.14342,0.960377 -0.42534,1.166097 -0.28357,0.20782 -0.52861,0.31068 -0.72858,0.31068 -0.20325,0 -0.44501,-0.10286 -0.7294,-0.31068 -0.28356,-0.20572 -0.42452,-0.569929 -0.42452,-1.089477 0,-0.154291 0.0189,-0.33482 0.0606,-0.54264 0.0803,-0.363159 0.26389,-0.648648 0.54745,-0.856467 l 0,-6.451848 -2.85365,3.500392 c 0.84987,2.485436 1.19408,4.817631 1.03262,6.994487 -0.16226,2.177905 -0.6376,4.108107 -1.42846,5.793753 -0.78759,1.683546 -1.7989,3.082653 -3.03314,4.198371 -1.23587,1.114667 -2.48076,1.853581 -3.73384,2.21464 -1.25554,0.518499 -2.42668,0.700079 -3.52159,0.54474 -1.09163,-0.155341 -2.07344,-0.494359 -2.94217,-1.011808 -0.87281,-0.517449 -1.6104,-1.126213 -2.21686,-1.826292 -0.60728,-0.700078 -1.03427,-1.332983 -1.27604,-1.902911 l -2.30619,-1.477827 3.88628,15.702955 c 1.09163,-1.08842 2.39635,-2.03306 3.91496,-2.8381 1.5178,-0.80293 3.12657,-1.46418 4.8263,-1.98163 1.69974,-0.51955 3.42816,-0.90789 5.18936,-1.16819 1.76039,-0.25715 3.4298,-0.3873 5.00824,-0.3873 1.57844,0 3.21753,0.1165 4.91563,0.35056 1.70138,0.23301 3.37161,0.60876 5.00906,1.12621 1.64073,0.51955 3.19622,1.17975 4.6755,1.98373 1.47518,0.80399 2.76105,1.77486 3.85432,2.91472 l 4.36981,-15.702955 -2.79137,1.477827 c -0.12374,0.569928 -0.44501,1.202833 -0.97198,1.902911"
         style="fill:#f68712;fill-opacity:1;fill-rule:nonzero;stroke:none"
         id="path3566-2-4-1"
         inkscape:connector-curvature="0" />
      <path
         d="m 309.45053,68.580803 c 0.52696,0 0.97197,-0.23196 1.33503,-0.69798 0.36634,-0.467068 0.54746,-1.036997 0.54746,-1.710836 0,-0.672789 -0.18112,-1.244816 -0.54746,-1.710836 -0.36306,-0.467069 -0.80807,-0.697979 -1.33503,-0.697979 -0.52533,0 -0.97199,0.23091 -1.33341,0.697979 -0.3647,0.46602 -0.54745,1.038047 -0.54745,1.710836 0,0.673839 0.18275,1.243768 0.54745,1.710836 0.36143,0.46602 0.80808,0.69798 1.33341,0.69798"
         style="fill:#f68712;fill-opacity:1;fill-rule:nonzero;stroke:none"
         id="path3570-3-5-2"
         inkscape:connector-curvature="0" />
      <path
         d="m 333.0957,85.570571 c -0.30405,-0.391498 -0.67858,-0.585673 -1.12196,-0.585673 -0.44665,0 -0.81954,0.194175 -1.12359,0.585673 -0.30241,0.38625 -0.45649,0.868013 -0.45649,1.434793 0,0.572029 0.15408,1.050643 0.45649,1.440042 0.30405,0.388349 0.67694,0.584623 1.12359,0.584623 0.44338,0 0.81791,-0.196274 1.12196,-0.584623 0.30569,-0.389399 0.45485,-0.868013 0.45485,-1.440042 0,-0.56678 -0.14916,-1.048543 -0.45485,-1.434793"
         style="fill:#f68712;fill-opacity:1;fill-rule:nonzero;stroke:none"
         id="path3574-7-7-4"
         inkscape:connector-curvature="0" />
    </g>
  </g>
</svg>
