<?xml version="1.0" encoding="UTF-8" standalone="no"?>
<!-- Created with Inkscape (http://www.inkscape.org/) -->

<svg
   xmlns:dc="http://purl.org/dc/elements/1.1/"
   xmlns:cc="http://creativecommons.org/ns#"
   xmlns:rdf="http://www.w3.org/1999/02/22-rdf-syntax-ns#"
   xmlns:svg="http://www.w3.org/2000/svg"
   xmlns="http://www.w3.org/2000/svg"
   xmlns:sodipodi="http://sodipodi.sourceforge.net/DTD/sodipodi-0.dtd"
   xmlns:inkscape="http://www.inkscape.org/namespaces/inkscape"
   width="208"
   height="60"
   viewBox="0 0 352 150"
   id="svg3492"
   version="1.1"
   inkscape:version="0.91 r13725"
   sodipodi:docname="logo-footer.svg">
  <defs
     id="defs3494" />
  <sodipodi:namedview
     id="base"
     pagecolor="#ffffff"
     bordercolor="#666666"
     borderopacity="1.0"
     inkscape:pageopacity="0.0"
     inkscape:pageshadow="2"
     inkscape:zoom="1.7928894"
     inkscape:cx="135.25023"
     inkscape:cy="97.112552"
     inkscape:document-units="px"
     inkscape:current-layer="layer1"
     showgrid="false"
     units="px"
     inkscape:window-width="1366"
     inkscape:window-height="705"
     inkscape:window-x="-8"
     inkscape:window-y="-8"
     inkscape:window-maximized="1" />
  <metadata
     id="metadata3497">
    <rdf:RDF>
      <cc:Work
         rdf:about="">
        <dc:format>image/svg+xml</dc:format>
        <dc:type
           rdf:resource="http://purl.org/dc/dcmitype/StillImage" />
        <dc:title></dc:title>
      </cc:Work>
    </rdf:RDF>
  </metadata>
  <g
     inkscape:groupmode="layer"
     id="layer1"
     inkscape:label="LOGO"
     style="display:inline"
     transform="translate(0,-61.575995)">
    <g
       id="g4784"
       transform="matrix(0.71053378,0,0,0.71053945,-21.230442,61.159522)">
      <path
         d="m 90.14987,128.57898 c -1.308298,0.88688 -2.845519,1.67847 -4.613954,2.36158 -1.536075,0.59077 -3.342283,1.13169 -5.41976,1.62717 -2.074049,0.48962 -4.457141,0.73589 -7.146993,0.73589 -4.307194,0 -8.357995,-0.76228 -12.163851,-2.28829 -3.80471,-1.52601 -7.130971,-3.61934 -9.975345,-6.27558 -2.843228,-2.66064 -5.092403,-5.75811 -6.74409,-9.30269 -1.653977,-3.54458 -2.479217,-7.3325 -2.479217,-11.36964 0,-4.03713 0.82524,-7.827976 2.479217,-11.37256 1.651687,-3.54311 3.900862,-6.644992 6.74409,-9.302687 2.844374,-2.659172 6.170635,-4.746633 9.975345,-6.274115 3.805856,-1.524552 7.856657,-2.289759 12.163851,-2.289759 4.763901,0 9.609069,1.083311 14.527483,3.247 l 2.997758,12.702142 c -1.768435,-3.741011 -4.207614,-6.644981 -7.32212,-8.71192 -3.111069,-2.069874 -6.514022,-3.100412 -10.203121,-3.100412 -2.767682,0 -5.360245,0.639139 -7.782256,1.91595 -2.423157,1.284145 -4.537262,3.053499 -6.342324,5.316875 -1.808499,2.269233 -3.227826,4.925465 -4.264847,7.974571 -1.039311,3.052036 -1.558971,6.350335 -1.558971,9.894915 0,3.54166 0.51966,6.86635 1.558971,9.96676 1.037021,3.1004 2.456348,5.80942 4.264847,8.12263 1.805062,2.31028 3.919167,4.13242 6.342324,5.46346 2.422011,1.32812 5.014574,1.99218 7.782256,1.99218 3.689099,0 7.071446,-1.18006 10.145888,-3.54459 3.075588,-2.36158 5.418624,-5.31393 7.034819,-8.86145 l 0,11.37257 z"
         style="fill:#36343c;fill-opacity:1;fill-rule:nonzero;stroke:none"
         id="path3530-9-6-1"
         inkscape:connector-curvature="0" />
      <path
         d="m 157.13679,131.53088 -16.25701,0 0,-1.91888 c -2.23086,1.27974 -4.84288,2.18862 -7.84063,2.73247 -2.99776,0.54092 -6.11225,0.8121 -9.34008,0.8121 -3.6891,0 -7.18934,-0.31957 -10.49157,-0.96163 -3.30679,-0.64061 -6.22556,-1.67115 -8.76319,-3.10041 -2.53761,-1.42634 -4.554426,-3.27046 -6.053874,-5.53384 -1.49831,-2.26482 -2.246884,-5.02221 -2.246884,-8.2692 0,-2.66064 0.591761,-5.02222 1.785602,-7.0921 1.191542,-2.064 3.130526,-3.83629 5.823806,-5.3154 2.68986,-1.47471 6.24161,-2.6064 10.6667,-3.395067 4.41707,-0.787195 9.85629,-1.181525 16.31308,-1.181525 0.3846,0 0.84474,0.0264 1.38385,0.07332 0.53568,0.0528 1.11257,0.0762 1.72951,0.0762 0.69135,0.09672 1.42048,0.148055 2.1908,0.148055 l 0,0.88395 c 0,0.294646 0.0183,0.642067 0.0583,1.034937 0.0354,0.3914 0.0583,0.78719 0.0583,1.18006 -0.84702,-0.0967 -1.71235,-0.14659 -2.59599,-0.14659 l -2.82492,0 c -3.38235,0 -6.49456,0.14659 -9.33893,0.44124 -2.84552,0.29611 -5.32248,0.93818 -7.43774,1.92035 -2.1141,0.9851 -3.76692,2.3616 -4.95847,4.13388 -1.19384,1.77229 -1.82567,4.13535 -1.90236,7.08917 0,1.8705 0.34682,3.66771 1.03703,5.38869 0.69364,1.72392 1.76843,3.247 3.23125,4.57806 1.4571,1.32811 3.32168,2.41435 5.59146,3.24992 2.26634,0.83558 4.90011,1.25336 7.89786,1.25336 2.61087,0 4.91842,-0.43978 6.91921,-1.33104 1.99621,-0.88395 3.66851,-1.91449 5.01457,-3.10042 1.34378,-1.18005 2.36479,-2.35865 3.05613,-3.54165 0.69021,-1.18299 1.03703,-2.06694 1.03703,-2.65769 l 0,-12.10699 c 0,-3.05204 -0.0402,-5.48839 -0.11675,-7.313456 -0.0779,-1.817735 -0.15339,-3.14878 -0.23007,-3.984357 -0.0779,-0.837032 -0.15453,-1.552405 -0.23007,-2.141698 -0.30676,-2.163693 -0.76919,-4.157336 -1.38384,-5.980929 -0.61695,-1.820664 -1.49831,-3.37307 -2.65094,-4.651349 -1.15377,-1.278279 -2.59371,-2.286824 -4.32437,-3.027111 -1.72951,-0.740287 -3.86308,-1.108231 -6.4007,-1.108231 -2.84323,0 -5.4747,0.615684 -7.89557,1.848518 -2.42086,1.23137 -4.59678,2.706077 -6.51402,4.427058 -1.92525,1.725384 -3.55746,3.569507 -4.90354,5.539691 -1.34492,1.96872 -2.40026,3.691175 -3.16944,5.167347 l 5.41861,-17.423855 c 1.53837,-0.592228 3.22897,-1.130219 5.07524,-1.624232 1.53607,-0.492548 3.28391,-0.908867 5.24464,-1.256289 1.96073,-0.34449 3.93863,-0.517467 5.93713,-0.517467 6.61131,0 11.74149,0.864889 15.39281,2.584406 3.65019,1.723916 6.34234,3.98729 8.07185,6.793051 1.72837,2.805751 2.74822,5.932546 3.05613,9.377447 0.30676,3.447829 0.46128,6.842896 0.46128,10.188106 l 0,0.29759 0,20.52278 c 0,0.68898 0.11332,1.27975 0.34339,1.77523 0.15452,0.49108 0.40519,0.88394 0.75201,1.17859 0.34339,0.29465 0.86533,0.44124 1.55782,0.44124 l 2.7654,3.54458 -0.11446,0 0.11446,0 z"
         style="fill:#36343c;fill-opacity:1;fill-rule:nonzero;stroke:none"
         id="path3534-9-5-0"
         inkscape:connector-curvature="0" />
      <path
         d="m 195.1864,102.29425 c 4.45827,2.36305 7.62772,5.26995 9.51291,8.71046 1.88175,3.44783 2.40255,6.77252 1.55554,9.96675 -0.84702,3.20156 -3.1706,5.90764 -6.97531,8.12263 -3.80241,2.21646 -9.16609,3.3247 -16.08531,3.3247 -1.68945,0 -3.49565,-0.12607 -5.41862,-0.36942 -1.92066,-0.2492 -3.76694,-0.56731 -5.53308,-0.96164 -1.77072,-0.38993 -3.4224,-0.88541 -4.95848,-1.4747 -1.53836,-0.59077 -2.76769,-1.18006 -3.69139,-1.7723 l 0,-17.13067 c 1.3083,5.5177 3.74976,9.9213 7.3244,13.21668 3.57236,3.30124 7.66551,4.94746 12.27717,4.94746 3.61357,0 6.43619,-0.59223 8.47589,-1.77229 2.03628,-1.18006 3.32398,-2.58293 3.86309,-4.20864 0.53568,-1.62716 0.34567,-3.32175 -0.57688,-5.09405 -0.92371,-1.77229 -2.53533,-3.29831 -4.84288,-4.57805 l -14.98877,-7.97311 c -2.38309,-1.27974 -4.4228,-2.90105 -6.11226,-4.87564 -1.69059,-1.964313 -2.87985,-4.081098 -3.57235,-6.348867 -0.69364,-2.261901 -0.86533,-4.525278 -0.5208,-6.788644 0.34797,-2.263376 1.34264,-4.333243 2.99775,-6.203753 1.65397,-1.86904 3.99701,-3.371602 7.03482,-4.50622 3.03667,-1.128753 6.89747,-1.697528 11.58697,-1.697528 0.76918,0 1.74897,0.05278 2.94052,0.148057 1.19155,0.09968 2.47924,0.246274 3.86308,0.444172 1.38385,0.197899 2.74709,0.516002 4.09315,0.958708 1.34378,0.444173 2.5525,1.012947 3.63302,1.697528 l 2.88101,12.552626 c -1.92182,-3.641338 -4.32323,-6.59368 -7.20538,-8.858521 -2.88328,-2.263372 -6.28394,-3.396523 -10.2054,-3.396523 -3.07331,0 -5.53537,0.590763 -7.37706,1.770824 -1.84627,1.181523 -3.07559,2.584408 -3.69139,4.208635 -0.61695,1.625701 -0.59635,3.323233 0.0562,5.095525 0.65358,1.769353 2.01911,3.198626 4.09544,4.280468 l 15.56451,8.565343 z"
         style="fill:#36343c;fill-opacity:1;fill-rule:nonzero;stroke:none"
         id="path3538-4-7-2"
         inkscape:connector-curvature="0" />
      <path
         d="m 273.47652,133.00823 -5.41863,0 c -4.07598,0 -7.3244,-1.54948 -9.74298,-4.64987 -2.42316,-3.10042 -3.71085,-7.35743 -3.86537,-12.77252 l 0,-11.96186 c -0.0756,-4.624956 -0.7669,-8.761771 -2.0752,-12.406028 -0.53796,-1.572936 -1.24877,-3.098944 -2.13242,-4.575125 -0.88479,-1.477635 -1.96073,-2.805761 -3.22782,-3.98875 -1.27053,-1.181525 -2.76768,-2.115315 -4.49835,-2.804295 -1.72837,-0.687514 -3.74633,-1.034935 -6.05159,-1.034935 -1.3083,0 -2.5193,0.197899 -3.63301,0.592229 -1.11258,0.394331 -2.07634,0.860492 -2.88101,1.40288 -0.80695,0.542393 -1.67229,1.206446 -2.59599,1.992176 l 0,48.583328 0,0.14512 -13.48932,0 -2.76768,-3.54458 2.76768,0 c 0.61466,0 1.11371,-0.17151 1.49831,-0.51453 0.38344,-0.3445 0.65471,-0.76228 0.80695,-1.25483 0.23007,-0.49254 0.34567,-1.08184 0.34567,-1.77229 l 0,-48.581855 0,-34.554529 c -0.0755,-1.180061 -0.3079,-2.311747 -0.6902,-3.396523 -0.38688,-0.883947 -0.94316,-1.697529 -1.67229,-2.43635 -0.73141,-0.737354 -1.74782,-1.108231 -3.05612,-1.108231 l 2.76768,-3.395057 c 4.0737,0 7.33929,1.574392 9.80022,4.724641 2.45749,3.153182 3.6891,7.335435 3.6891,12.55409 l 0,27.611959 0.11675,0.146592 c 0.99696,-0.197899 2.11182,-0.442705 3.34229,-0.73882 1.07708,-0.196433 2.34417,-0.366479 3.80699,-0.514536 1.4571,-0.149524 3.07101,-0.22282 4.83945,-0.22282 5.53537,0 9.99365,1.108231 13.37829,3.323228 3.38005,2.213531 5.99321,4.850713 7.83948,7.89981 1.84512,3.052035 3.07215,6.252126 3.6891,9.597344 0.61466,3.34961 0.92371,6.106997 0.92371,8.270687 l 0,18.90004 c 0.0756,1.28267 0.30561,2.46126 0.69021,3.54456 0.38229,0.88689 0.93858,1.67701 1.67228,2.36453 0.72912,0.68752 1.78675,1.03346 3.17059,1.03346 l 2.65323,3.54165 z"
         style="fill:#36343c;fill-opacity:1;fill-rule:nonzero;stroke:none"
         id="path3542-4-1-9"
         inkscape:connector-curvature="0" />
      <path
         d="m 306.67935,129.46658 c 3.997,0 7.59225,-1.33105 10.7823,-3.99168 3.18776,-2.65331 5.59145,-6.14658 7.20537,-10.48129 l 10.95398,0 c -1.15376,2.65624 -2.69099,5.09699 -4.61166,7.31199 -1.92295,2.21352 -4.13207,4.13241 -6.62848,5.75811 -2.49984,1.61983 -5.24692,2.87758 -8.24468,3.76152 -3.00004,0.88835 -6.15231,1.33253 -9.45683,1.33253 -4.30605,0 -8.35914,-0.76521 -12.16385,-2.2883 -3.80242,-1.52601 -7.13096,-3.59589 -9.97305,-6.20375 -2.84323,-2.60932 -5.07409,-5.68335 -6.68685,-9.22792 -1.61621,-3.54459 -2.42088,-7.33251 -2.42088,-11.36964 0,-4.03713 0.80467,-7.827979 2.42088,-11.372563 1.61276,-3.544584 3.84362,-6.644991 6.68685,-9.304152 2.84209,-2.657706 6.17063,-4.745168 9.97305,-6.274116 3.80471,-1.523086 7.8578,-2.289758 12.16385,-2.289758 3.92147,0 7.62773,0.64207 11.12912,1.921812 3.49566,1.278278 6.62848,3.025648 9.39616,5.239177 2.76769,2.216468 5.05235,4.825792 6.86084,7.826516 1.80392,3.006592 2.97715,6.278514 3.51627,9.820159 l -45.19866,0 c 0.15452,-1.772292 0.61466,-3.441962 1.38384,-5.020755 0.99696,0.495477 2.22858,0.864894 3.69025,1.106765 1.45825,0.247738 3.22896,0.321034 5.30301,0.224289 l 22.8294,0 c -1.30715,-5.118973 -3.69024,-9.302697 -7.14928,-12.554089 -3.45789,-3.247003 -7.37935,-4.871237 -11.76095,-4.871237 -2.76539,0 -5.3591,0.662594 -7.78225,1.995109 -2.42087,1.326652 -4.53612,3.150255 -6.34233,5.463467 -1.80621,2.310274 -3.22553,5.019281 -4.26256,8.119699 -1.04045,3.103336 -1.55897,6.425097 -1.55897,9.969677 0,3.54166 0.51852,6.8429 1.55897,9.89199 1.03703,3.05204 2.45635,5.7376 4.26256,8.04786 1.80621,2.31321 3.92146,4.13388 6.34233,5.46347 2.42315,1.32811 5.01686,1.9951 7.78225,1.9951"
         style="fill:#36343c;fill-opacity:1;fill-rule:nonzero;stroke:none"
         id="path3546-1-2-2"
         inkscape:connector-curvature="0" />
      <path
         d="m 356.48807,49.577189 c 1.76844,0 3.2862,0.813581 4.55445,2.436348 1.26938,1.624234 1.90235,3.569502 1.90235,5.832874 0,2.266302 -0.63297,4.208638 -1.90235,5.834337 -1.26824,1.622768 -2.786,2.434884 -4.55445,2.434884 -1.76843,0 -3.28619,-0.812116 -4.55443,-2.434884 -1.26709,-1.625699 -1.90236,-3.568035 -1.90236,-5.834337 0,-2.263372 0.63527,-4.20864 1.90236,-5.832874 1.26824,-1.622767 2.786,-2.436348 4.55443,-2.436348 m -7.03367,81.953401 -2.65093,-3.39506 2.65093,0 c 1.07595,0 1.78676,-0.41778 2.13585,-1.25775 0.34339,-0.82971 0.51623,-1.4967 0.51623,-1.99218 l 0,-38.540348 c -0.0767,-1.18006 -0.30905,-2.310284 -0.69135,-3.395064 -0.38459,-0.885414 -0.94316,-1.698997 -1.67229,-2.434881 -0.73026,-0.740286 -1.74782,-1.108231 -3.05612,-1.108231 l 2.76768,-3.397989 c 4.0737,0 7.34043,1.575858 9.80136,4.724642 2.45864,3.151719 3.6891,7.338361 3.6891,12.55409 l 0,31.303141 c 0,0.69044 0.1156,1.27974 0.34796,1.77522 0.38231,1.08478 1.18926,1.61983 2.42201,1.61983 l 2.7654,3.54458 -19.02583,0 z"
         style="fill:#36343c;fill-opacity:1;fill-rule:nonzero;stroke:none"
         id="path3550-4-9-4"
         inkscape:connector-curvature="0" />
      <path
         d="m 420.13282,74.827713 -10.71934,10.632275 c -0.53912,-0.589293 -1.19384,-1.130224 -1.96073,-1.622763 -0.61695,-0.392865 -1.36782,-0.763746 -2.24917,-1.108239 -0.88479,-0.345947 -1.86687,-0.515997 -2.93938,-0.515997 -2.84667,0 -5.13133,0.662588 -6.86084,1.992178 -1.73066,1.32958 -3.05613,3.076949 -3.97984,5.243571 -0.92142,2.165157 -1.51776,4.55313 -1.78675,7.160989 -0.27012,2.607869 -0.40405,5.145363 -0.40405,7.605173 l 0,27.31584 -13.60606,0 -2.65094,-3.39505 2.65094,0 c 0.61466,0 1.11371,-0.14953 1.50059,-0.44418 0.3823,-0.29464 0.67304,-0.6362 0.86533,-1.03054 0.19,-0.39579 0.30562,-0.79012 0.34567,-1.18592 0.0366,-0.38847 0.0562,-0.63474 0.0562,-0.73589 l 0,-38.247167 c -0.0779,-1.178597 -0.30562,-2.311749 -0.69021,-3.395055 -0.3846,-0.883949 -0.94202,-1.697532 -1.67229,-2.434886 -0.7314,-0.738821 -1.74897,-1.106766 -3.05613,-1.106766 l 2.65094,-3.546046 13.60607,0 0,8.861455 c 2.15302,-2.854144 4.51551,-5.243579 7.09091,-7.160994 2.57768,-1.921814 5.2847,-2.881988 8.12907,-2.881988 l 15.68011,0 z"
         style="fill:#36343c;fill-opacity:1;fill-rule:nonzero;stroke:none"
         id="path3554-1-5-0"
         inkscape:connector-curvature="0" />
      <path
         d="m 497.04803,130.64913 c -1.88633,5.6599 -4.45942,10.58244 -7.72617,14.76468 -3.26789,4.18666 -7.09319,7.48497 -11.47479,9.89493 -4.38045,2.41436 -9.06995,3.61641 -14.06392,3.61641 -4.99969,0 -9.7075,-1.20205 -14.12458,-3.61641 -4.4228,-2.40996 -8.26528,-5.70827 -11.52973,-9.89493 -3.26788,-4.18224 -5.84328,-9.10478 -7.72617,-14.76468 -1.88404,-5.65989 -2.82491,-11.69067 -2.82491,-18.08938 0,-6.39872 0.94087,-12.40604 2.82491,-18.017559 1.88289,-5.610048 4.45829,-10.506207 7.72617,-14.689923 3.26445,-4.182253 7.10693,-7.480559 11.52973,-9.893454 4.41708,-2.41143 9.12489,-3.619343 14.12458,-3.619343 4.99397,0 9.68347,1.207913 14.06392,3.619343 4.3816,2.412895 8.2069,5.711201 11.47479,9.893454 3.26675,4.183716 5.83984,9.079875 7.72617,14.689923 1.8829,5.611519 2.82606,11.618839 2.82606,18.017559 0,6.39871 -0.94316,12.42949 -2.82606,18.08938 m 12.45,-38.172414 c -2.57309,-6.202279 -6.10767,-11.640819 -10.60602,-16.317085 -4.49949,-4.6748 -9.74184,-8.343984 -15.7385,-10.998755 -5.99779,-2.659168 -12.3756,-3.990218 -19.14029,-3.990218 -6.84367,0 -13.25924,1.33105 -19.2559,3.990218 -5.9978,2.654771 -11.24014,6.323955 -15.7362,10.998755 -4.49949,4.676266 -8.03408,10.114806 -10.60717,16.317085 -2.57768,6.20229 -3.86537,12.847284 -3.86537,19.934974 0,7.08916 1.28769,13.73415 3.86537,19.93497 2.57309,6.20229 6.10768,11.64229 10.60717,16.31709 4.49606,4.67626 9.7384,8.34252 15.7362,11.00022 5.99666,2.65917 12.41223,3.98875 19.2559,3.98875 6.76469,0 13.1425,-1.32958 19.14029,-3.98875 5.99666,-2.6577 11.23901,-6.32396 15.7385,-11.00022 4.49835,-4.6748 8.03293,-10.1148 10.60602,-16.31709 2.5754,-6.20082 3.86538,-12.84581 3.86538,-19.93497 0,-7.08769 -1.28998,-13.732684 -3.86538,-19.934974"
         style="fill:#36343c;fill-opacity:1;fill-rule:nonzero;stroke:none"
         id="path3558-5-2-4"
         inkscape:connector-curvature="0" />
      <path
         d="m 434.97039,38.786746 c 0.42694,-0.543854 0.63754,-1.212311 0.63754,-2.011235 0,-0.791593 -0.2106,-1.464447 -0.63754,-2.003904 -0.42238,-0.546786 -0.94547,-0.81798 -1.56699,-0.81798 -0.62153,0 -1.14233,0.271194 -1.56698,0.81798 -0.42466,0.539457 -0.63756,1.212311 -0.63756,2.003904 0,0.798924 0.2129,1.467381 0.63756,2.011235 0.42465,0.542388 0.94545,0.816514 1.56698,0.816514 0.62152,0 1.14461,-0.274126 1.56699,-0.816514"
         style="fill:#f68712;fill-opacity:1;fill-rule:nonzero;stroke:none"
         id="path3562-2-6-7"
         inkscape:connector-curvature="0" />
      <path
         d="m 490.88678,48.233672 c -0.73599,0.977765 -1.72379,1.827995 -2.96685,2.550691 -1.24533,0.722695 -2.68641,1.196185 -4.32551,1.413141 -1.64137,0.216955 -3.42012,-0.03659 -5.34078,-0.76081 -1.75242,-0.504274 -3.47392,-1.536278 -5.17138,-3.093078 -1.69404,-1.558268 -3.06643,-3.512331 -4.11033,-5.863657 -1.04847,-2.354258 -1.64138,-5.050075 -1.78216,-8.091846 -0.1385,-3.040307 0.46471,-6.297568 1.82223,-9.768853 l -3.98213,-4.888824 0,9.010975 c 0.39146,0.219886 0.64671,0.583434 0.76003,1.089174 0.0561,0.290251 0.087,0.542388 0.087,0.757878 0,0.797457 -0.20031,1.341311 -0.59406,1.62863 -0.39603,0.290252 -0.73828,0.433911 -1.01757,0.433911 -0.28386,0 -0.62152,-0.143659 -1.0187,-0.433911 -0.39604,-0.287319 -0.59292,-0.795991 -0.59292,-1.521619 0,-0.215489 0.0264,-0.467626 0.0847,-0.757877 0.11217,-0.507207 0.36857,-0.905936 0.76461,-1.196186 l 0,-9.010975 -3.98556,4.888824 c 1.18697,3.471285 1.66771,6.728546 1.44221,9.768853 -0.22663,3.041771 -0.89051,5.737588 -1.99506,8.091846 -1.09998,2.351326 -2.51244,4.305389 -4.23623,5.863657 -1.72609,1.5568 -3.46476,2.588804 -5.21488,3.093078 -1.75355,0.724162 -3.38922,0.977765 -4.91843,0.76081 -1.52462,-0.216956 -2.89587,-0.690446 -4.10917,-1.413141 -1.21902,-0.722696 -2.24917,-1.572926 -3.09619,-2.550691 -0.84816,-0.977765 -1.4445,-1.861711 -1.78217,-2.657702 l -3.22095,-2.064008 5.42778,21.931542 c 1.52462,-1.520152 3.34685,-2.839475 5.46783,-3.963832 2.11984,-1.121423 4.36672,-2.044949 6.74066,-2.767646 2.37393,-0.725627 4.78793,-1.268015 7.24771,-1.631562 2.45864,-0.359149 4.79023,-0.540923 6.99476,-0.540923 2.20454,0 4.49377,0.162717 6.86542,0.489616 2.37623,0.325433 4.70895,0.850231 6.9959,1.572926 2.29152,0.725628 4.46401,1.647687 6.53004,2.770578 2.06031,1.12289 3.85622,2.478861 5.38314,4.070843 l 6.1031,-21.931542 -3.89857,2.064008 c -0.17283,0.795991 -0.62153,1.679937 -1.35752,2.657702"
         style="fill:#f68712;fill-opacity:1;fill-rule:nonzero;stroke:none"
         id="path3566-2-4-1"
         inkscape:connector-curvature="0" />
      <path
         d="m 464.43307,11.042547 c 0.73599,0 1.35751,-0.323966 1.86458,-0.974833 0.51165,-0.6523309 0.7646,-1.4483227 0.7646,-2.3894394 0,-0.9396513 -0.25295,-1.7385738 -0.7646,-2.3894401 -0.50707,-0.6523324 -1.12859,-0.9748328 -1.86458,-0.9748328 -0.7337,0 -1.35752,0.3225004 -1.8623,0.9748328 -0.50935,0.6508663 -0.7646,1.4497888 -0.7646,2.3894401 0,0.9411167 0.25525,1.7371085 0.7646,2.3894394 0.50479,0.650867 1.1286,0.974833 1.8623,0.974833"
         style="fill:#f68712;fill-opacity:1;fill-rule:nonzero;stroke:none"
         id="path3570-3-5-2"
         inkscape:connector-curvature="0" />
      <path
         d="m 497.45711,34.771313 c -0.42465,-0.546786 -0.94774,-0.817979 -1.56698,-0.817979 -0.62381,0 -1.14461,0.271193 -1.56927,0.817979 -0.42236,0.539457 -0.63755,1.212312 -0.63755,2.003905 0,0.798924 0.21519,1.467381 0.63755,2.011235 0.42466,0.542388 0.94546,0.816514 1.56927,0.816514 0.61924,0 1.14233,-0.274126 1.56698,-0.816514 0.42695,-0.543854 0.63527,-1.212311 0.63527,-2.011235 0,-0.791593 -0.20832,-1.464448 -0.63527,-2.003905"
         style="fill:#f68712;fill-opacity:1;fill-rule:nonzero;stroke:none"
         id="path3574-7-7-4"
         inkscape:connector-curvature="0" />
      <path
         d="m 114.15273,198.69819 c -0.80466,1.24895 -1.61849,2.16663 -2.44262,2.75153 -0.82412,0.5849 -1.6986,0.87808 -2.62345,0.87808 -1.1057,0 -1.9676,-0.39873 -2.5857,-1.19765 -0.61809,-0.79746 -0.92599,-1.87198 -0.92599,-3.22356 0,-1.51868 0.33423,-3.01539 1.00268,-4.49009 0.66846,-1.47179 1.5624,-2.66944 2.68299,-3.59003 1.12058,-0.92058 2.22284,-1.37941 3.30794,-1.37941 0.84472,0 1.4777,0.22428 1.90007,0.67579 0.42236,0.45003 0.63297,1.00267 0.63297,1.66087 0,0.61569 -0.14537,1.14489 -0.43724,1.58172 -0.22091,0.33423 -0.49219,0.50135 -0.81383,0.50135 -0.24151,0 -0.44182,-0.0997 -0.60322,-0.29906 -0.16138,-0.19789 -0.24036,-0.44562 -0.24036,-0.74175 0,-0.18176 0.0297,-0.35181 0.0893,-0.51306 0.0606,-0.15978 0.18085,-0.35328 0.36284,-0.57904 0.18085,-0.2243 0.29074,-0.38847 0.33194,-0.49256 0.04,-0.10261 0.0595,-0.20521 0.0595,-0.30783 0,-0.20669 -0.0755,-0.37967 -0.22548,-0.52187 -0.22091,-0.20668 -0.53911,-0.3093 -0.95004,-0.3093 -0.76346,0 -1.52005,0.34449 -2.26863,1.03347 -0.74972,0.68898 -1.38384,1.6638 -1.90693,2.92449 -0.64327,1.54507 -0.96491,3.08283 -0.96491,4.61471 0,1.01587 0.22549,1.82066 0.67876,2.41289 0.45212,0.59223 1.06907,0.88834 1.85427,0.88834 0.59177,0 1.1824,-0.1935 1.77073,-0.57903 0.58719,-0.38553 1.24764,-1.08184 1.98248,-2.08599 l 0.33194,0.38699 z"
         style="fill:#4d4d4d;fill-opacity:1;fill-rule:nonzero;stroke:none"
         id="path3578-6-0-5"
         inkscape:connector-curvature="0" />
      <path
         d="m 127.73166,192.07579 c 0,-0.92648 -0.17627,-1.63451 -0.52767,-2.12266 -0.35255,-0.48961 -0.80924,-0.73442 -1.3724,-0.73442 -1.13545,0 -2.18507,1.0496 -3.14999,3.14585 -0.96491,2.0992 -1.44793,4.18373 -1.44793,6.25652 0,0.93819 0.18886,1.66676 0.56544,2.18129 0.37657,0.516 0.84701,0.77107 1.41017,0.77107 1.09539,0 2.12212,-1.0408 3.08245,-3.12534 0.95919,-2.08599 1.43993,-4.20863 1.43993,-6.37231 m 1.94356,1.04226 c 0,1.4923 -0.3079,2.96993 -0.92599,4.42999 -0.61809,1.46152 -1.48,2.62252 -2.5857,3.48594 -1.1057,0.86196 -2.18049,1.29294 -3.22553,1.29294 -1.06564,0 -1.93554,-0.43684 -2.60858,-1.312 -0.67418,-0.87515 -1.0107,-2.00244 -1.0107,-3.37892 0,-1.46739 0.32965,-2.9377 0.98895,-4.41095 0.65701,-1.4747 1.53607,-2.63863 2.6372,-3.49473 1.09997,-0.8561 2.16333,-1.28414 3.1889,-1.28414 1.03474,0 1.88405,0.43098 2.54678,1.29293 0.66388,0.86342 0.99467,1.98925 0.99467,3.37894"
         style="fill:#4d4d4d;fill-opacity:1;fill-rule:nonzero;stroke:none"
         id="path3582-4-1-2"
         inkscape:connector-curvature="0" />
      <path
         d="m 138.85368,188.44676 -1.52234,6.73734 c 0.67304,-1.58318 1.25107,-2.7735 1.7341,-3.57244 0.73255,-1.23576 1.45137,-2.13582 2.15531,-2.70313 0.41206,-0.30785 0.84473,-0.46177 1.29571,-0.46177 0.3823,0 0.70165,0.15686 0.95804,0.47202 0.2564,0.31665 0.38459,0.72417 0.38459,1.22551 0,0.48962 -0.0858,1.12729 -0.25754,1.91302 l -0.82755,3.78352 c 1.2648,-3.03737 2.46665,-5.16734 3.60211,-6.38992 0.63297,-0.66845 1.25679,-1.00415 1.86916,-1.00415 0.35254,0 0.64327,0.15392 0.87449,0.46177 0.23121,0.30931 0.34567,0.79159 0.34567,1.44978 0,0.57758 -0.0698,1.19619 -0.20946,1.85146 l -1.28198,5.81233 c -0.28042,1.26216 -0.42121,1.96286 -0.42121,2.10506 0,0.14073 0.0344,0.258 0.10416,0.34742 0.0504,0.0777 0.11103,0.11434 0.18199,0.11434 0.0801,0 0.22091,-0.0953 0.42236,-0.28878 0.44068,-0.43685 0.85389,-1.01588 1.23505,-1.73859 l 0.3926,0.32985 c -0.19115,0.39726 -0.53569,0.94698 -1.03359,1.64036 -0.49677,0.69631 -0.91799,1.16833 -1.26595,1.419 -0.34681,0.25214 -0.67074,0.37675 -0.97178,0.37675 -0.27127,0 -0.49677,-0.12168 -0.67876,-0.36649 -0.18084,-0.2448 -0.27127,-0.54092 -0.27127,-0.88834 0,-0.47642 0.15567,-1.43513 0.467,-2.8776 l 1.07137,-4.80673 c 0.24036,-1.09356 0.36627,-1.70486 0.37658,-1.83385 0.0297,-0.1803 0.0446,-0.36061 0.0446,-0.54093 0,-0.25654 -0.0446,-0.45736 -0.13507,-0.59809 -0.0905,-0.12753 -0.19687,-0.19351 -0.31591,-0.19351 -0.32278,0 -0.66846,0.21256 -1.0416,0.63767 -1.0645,1.26216 -2.0649,3.03152 -3.00005,5.30955 -0.61237,1.5055 -1.1904,3.4361 -1.73295,5.79182 l -1.76271,0 2.00422,-9.03589 c 0.21062,-0.97777 0.31592,-1.6345 0.31592,-1.96872 0,-0.2712 -0.0424,-0.4691 -0.12705,-0.5981 -0.087,-0.129 -0.18887,-0.1935 -0.31019,-0.1935 -0.26098,0 -0.53226,0.12314 -0.81383,0.36648 -0.47273,0.38701 -1.07479,1.21671 -1.8085,2.49059 -0.73484,1.27388 -1.30257,2.49646 -1.70319,3.66772 -0.20145,0.54092 -0.66388,2.29708 -1.38727,5.27142 l -1.7341,0 2.15646,-9.69262 0.28616,-1.25482 c 0.0504,-0.17885 0.0744,-0.31517 0.0744,-0.40459 0,-0.21989 -0.0767,-0.41633 -0.23349,-0.58931 -0.15453,-0.17444 -0.35369,-0.25946 -0.59406,-0.25946 -0.10073,0 -0.37773,0.0573 -0.82985,0.17298 l -0.10645,-0.55998 4.02562,-0.92646 z"
         style="fill:#4d4d4d;fill-opacity:1;fill-rule:nonzero;stroke:none"
         id="path3586-5-4-2"
         inkscape:connector-curvature="0" />
      <path
         d="m 156.57855,200.39733 c 0.48189,0.73296 1.13546,1.09943 1.95958,1.09943 0.40177,0 0.81154,-0.14512 1.22818,-0.4339 0.41665,-0.28879 0.82641,-0.71684 1.22817,-1.28415 0.40291,-0.56584 0.76347,-1.21964 1.08625,-1.95992 0.32164,-0.74029 0.60779,-1.61398 0.8596,-2.62545 0.24953,-1.01002 0.37658,-2.00391 0.37658,-2.98314 0,-0.79746 -0.14307,-1.40875 -0.42923,-1.83386 -0.2873,-0.42365 -0.62153,-0.63767 -1.00268,-0.63767 -0.83557,0 -1.66084,0.61861 -2.48039,1.85438 -0.81955,1.23576 -1.41933,2.67676 -1.80048,4.32445 l -1.02558,4.47983 z m 2.72877,-11.95013 -0.81497,3.43464 c 0.85388,-1.28708 1.61277,-2.18129 2.27665,-2.68263 0.66273,-0.50135 1.34149,-0.75201 2.03398,-0.75201 0.69479,0 1.28541,0.35035 1.77187,1.05106 0.48761,0.70217 0.73141,1.6125 0.73141,2.73246 0,2.18861 -0.69593,4.4168 -2.08778,6.68896 -1.39186,2.27218 -3.01264,3.40679 -4.86119,3.40679 -0.3926,0 -0.73714,-0.0543 -1.03359,-0.16272 -0.29532,-0.10988 -0.63527,-0.30637 -1.01642,-0.58929 l -0.84474,3.86268 c -0.17055,0.74469 -0.25639,1.2343 -0.25639,1.46445 0,0.21988 0.0458,0.40753 0.1362,0.56145 0.0904,0.15392 0.2358,0.27266 0.43725,0.35622 0.20145,0.0835 0.60207,0.12606 1.20529,0.12606 l -0.10531,0.55998 -5.50218,0 0.12133,-0.55998 c 0.72225,-0.0382 1.20986,-0.19497 1.46168,-0.47349 0.25182,-0.27559 0.51737,-1.0452 0.79894,-2.30589 l 2.95426,-13.0906 c 0.18086,-0.83558 0.27128,-1.35158 0.27128,-1.54361 0,-0.2712 -0.0595,-0.48083 -0.18084,-0.62742 -0.12019,-0.14805 -0.30562,-0.22281 -0.55744,-0.22281 -0.23122,0 -0.54827,0.0323 -0.95004,0.0967 l 0,-0.57904 4.01075,-0.75201 z"
         style="fill:#4d4d4d;fill-opacity:1;fill-rule:nonzero;stroke:none"
         id="path3590-3-4-1"
         inkscape:connector-curvature="0" />
      <path
         d="m 170.30836,189.27705 4.02562,-0.8297 -1.68831,7.25774 c 1.36553,-2.9846 2.60744,-5.07059 3.72344,-6.25505 0.62267,-0.66846 1.13546,-1.00269 1.53722,-1.00269 0.25068,0 0.45213,0.0952 0.60321,0.28879 0.15109,0.19349 0.2255,0.46909 0.2255,0.82971 0,0.65671 -0.13508,1.28705 -0.40635,1.89249 -0.18084,0.45003 -0.44754,0.67579 -0.79894,0.67579 -0.182,0 -0.33423,-0.0776 -0.46013,-0.23162 -0.12592,-0.15393 -0.20833,-0.38701 -0.24953,-0.69632 -0.009,-0.18031 -0.0401,-0.30198 -0.0904,-0.36648 -0.0699,-0.0762 -0.14536,-0.11575 -0.22549,-0.11575 -0.13048,0 -0.2564,0.0395 -0.37658,0.11575 -0.20145,0.14219 -0.50707,0.53506 -0.92027,1.1786 -0.64213,0.96456 -1.34149,2.22672 -2.09465,3.78351 -0.33194,0.65527 -0.61352,1.39702 -0.84359,2.22087 -0.33194,1.14488 -0.5185,1.82799 -0.55742,2.04495 l -0.37773,1.8925 -1.77873,0 2.15646,-9.28657 c 0.24037,-1.06718 0.36055,-1.83386 0.36055,-2.29709 0,-0.17884 -0.055,-0.32837 -0.16597,-0.44417 -0.16025,-0.15392 -0.36628,-0.23162 -0.61809,-0.23162 -0.16025,0 -0.46243,0.0454 -0.90425,0.13633 l -0.0755,-0.55997 z"
         style="fill:#4d4d4d;fill-opacity:1;fill-rule:nonzero;stroke:none"
         id="path3594-6-1-7"
         inkscape:connector-curvature="0" />
      <path
         d="m 184.3701,195.59017 c 1.15606,-0.16713 2.09579,-0.45739 2.8192,-0.86931 0.9546,-0.54092 1.67113,-1.19325 2.14843,-1.95992 0.47731,-0.76519 0.71653,-1.48937 0.71653,-2.17101 0,-0.42513 -0.10415,-0.76667 -0.31019,-1.02321 -0.20488,-0.258 -0.49905,-0.387 -0.88135,-0.387 -0.79437,0 -1.63566,0.54093 -2.52503,1.6213 -0.88936,1.08184 -1.54523,2.67823 -1.96759,4.78915 m -0.0743,0.73295 c -0.0607,0.50281 -0.0916,0.91473 -0.0916,1.23577 0,0.88833 0.24609,1.64475 0.73942,2.26923 0.49219,0.62301 1.08968,0.93525 1.79362,0.93525 0.55286,0 1.08853,-0.1466 1.60589,-0.44271 0.51738,-0.29759 1.28886,-0.94699 2.31328,-1.95114 l 0.24152,0.44418 c -1.83825,2.34253 -3.59753,3.51379 -5.27554,3.51379 -1.13546,0 -1.99165,-0.46029 -2.56396,-1.38089 -0.5723,-0.92059 -0.85845,-1.93354 -0.85845,-3.0403 0,-1.48058 0.35598,-2.99926 1.07022,-4.55606 0.71309,-1.55827 1.61046,-2.76326 2.69099,-3.61934 1.07937,-0.8561 2.19309,-1.28415 3.33886,-1.28415 0.82297,0 1.43535,0.21109 1.83139,0.63767 0.39717,0.42365 0.59634,0.93233 0.59634,1.52456 0,0.82385 -0.25754,1.61543 -0.76918,2.37477 -0.68449,0.97777 -1.67916,1.7767 -2.98516,2.39239 -0.87449,0.40019 -2.10153,0.71535 -3.67766,0.94698"
         style="fill:#4d4d4d;fill-opacity:1;fill-rule:nonzero;stroke:none"
         id="path3598-4-1-0"
         inkscape:connector-curvature="0" />
      <path
         d="m 213.42817,198.69819 c -0.80467,1.24895 -1.6185,2.16663 -2.44262,2.75153 -0.82413,0.5849 -1.69862,0.87808 -2.62346,0.87808 -1.1057,0 -1.9676,-0.39873 -2.58569,-1.19765 -0.6181,-0.79746 -0.926,-1.87198 -0.926,-3.22356 0,-1.51868 0.33423,-3.01539 1.00268,-4.49009 0.66846,-1.47179 1.56241,-2.66944 2.68299,-3.59003 1.12058,-0.92058 2.22285,-1.37941 3.30795,-1.37941 0.84472,0 1.47769,0.22428 1.90005,0.67579 0.42238,0.45003 0.63298,1.00267 0.63298,1.66087 0,0.61569 -0.14537,1.14489 -0.43724,1.58172 -0.22091,0.33423 -0.49218,0.50135 -0.81383,0.50135 -0.24151,0 -0.44182,-0.0997 -0.60321,-0.29906 -0.16139,-0.19789 -0.24037,-0.44562 -0.24037,-0.74175 0,-0.18176 0.0297,-0.35181 0.0893,-0.51306 0.0606,-0.15978 0.18085,-0.35328 0.36285,-0.57904 0.18084,-0.2243 0.29072,-0.38847 0.33193,-0.49256 0.0401,-0.10261 0.0595,-0.20521 0.0595,-0.30783 0,-0.20669 -0.0755,-0.37967 -0.22549,-0.52187 -0.22091,-0.20668 -0.53911,-0.3093 -0.95003,-0.3093 -0.76346,0 -1.52005,0.34449 -2.26863,1.03347 -0.74973,0.68898 -1.38384,1.6638 -1.90693,2.92449 -0.64328,1.54507 -0.96492,3.08283 -0.96492,4.61471 0,1.01587 0.22549,1.82066 0.67876,2.41289 0.45213,0.59223 1.06908,0.88834 1.85428,0.88834 0.59177,0 1.18239,-0.1935 1.77073,-0.57903 0.58718,-0.38553 1.24763,-1.08184 1.98248,-2.08599 l 0.33193,0.38699 z"
         style="fill:#4d4d4d;fill-opacity:1;fill-rule:nonzero;stroke:none"
         id="path3602-4-6-3"
         inkscape:connector-curvature="0" />
      <path
         d="m 220.82571,195.59017 c 1.15606,-0.16713 2.09579,-0.45739 2.81919,-0.86931 0.95461,-0.54092 1.67114,-1.19325 2.14845,-1.95992 0.4773,-0.76519 0.71653,-1.48937 0.71653,-2.17101 0,-0.42513 -0.10416,-0.76667 -0.31019,-1.02321 -0.20489,-0.258 -0.49906,-0.387 -0.88135,-0.387 -0.79437,0 -1.63567,0.54093 -2.52503,1.6213 -0.88938,1.08184 -1.54524,2.67823 -1.9676,4.78915 m -0.0744,0.73295 c -0.0607,0.50281 -0.0916,0.91473 -0.0916,1.23577 0,0.88833 0.24609,1.64475 0.73942,2.26923 0.49218,0.62301 1.08968,0.93525 1.79362,0.93525 0.55285,0 1.08853,-0.1466 1.6059,-0.44271 0.51737,-0.29759 1.28884,-0.94699 2.31327,-1.95114 l 0.24151,0.44418 c -1.83825,2.34253 -3.59753,3.51379 -5.27554,3.51379 -1.13546,0 -1.99164,-0.46029 -2.56394,-1.38089 -0.57231,-0.92059 -0.85847,-1.93354 -0.85847,-3.0403 0,-1.48058 0.35598,-2.99926 1.07022,-4.55606 0.7131,-1.55827 1.61048,-2.76326 2.69099,-3.61934 1.07938,-0.8561 2.19309,-1.28415 3.33886,-1.28415 0.82297,0 1.43535,0.21109 1.83138,0.63767 0.39719,0.42365 0.59635,0.93233 0.59635,1.52456 0,0.82385 -0.25754,1.61543 -0.76918,2.37477 -0.68448,0.97777 -1.67916,1.7767 -2.98516,2.39239 -0.87449,0.40019 -2.10152,0.71535 -3.67766,0.94698"
         style="fill:#4d4d4d;fill-opacity:1;fill-rule:nonzero;stroke:none"
         id="path3606-3-1-7"
         inkscape:connector-curvature="0" />
      <path
         d="m 232.85312,189.27705 4.02563,-0.8297 -1.68832,7.25774 c 1.36553,-2.9846 2.60745,-5.07059 3.72345,-6.25505 0.62267,-0.66846 1.13546,-1.00269 1.53722,-1.00269 0.25068,0 0.45212,0.0952 0.60321,0.28879 0.15109,0.19349 0.2255,0.46909 0.2255,0.82971 0,0.65671 -0.13507,1.28705 -0.40634,1.89249 -0.18085,0.45003 -0.44755,0.67579 -0.79894,0.67579 -0.18201,0 -0.33424,-0.0776 -0.46014,-0.23162 -0.12592,-0.15393 -0.20834,-0.38701 -0.24953,-0.69632 -0.009,-0.18031 -0.0401,-0.30198 -0.0905,-0.36648 -0.0698,-0.0762 -0.14537,-0.11575 -0.22549,-0.11575 -0.13049,0 -0.25639,0.0395 -0.37658,0.11575 -0.20146,0.14219 -0.50706,0.53506 -0.92027,1.1786 -0.64214,0.96456 -1.3415,2.22672 -2.09465,3.78351 -0.33194,0.65527 -0.61351,1.39702 -0.84358,2.22087 -0.33194,1.14488 -0.51852,1.82799 -0.55744,2.04495 l -0.37772,1.8925 -1.77874,0 2.15646,-9.28657 c 0.24037,-1.06718 0.36056,-1.83386 0.36056,-2.29709 0,-0.17884 -0.055,-0.32837 -0.16597,-0.44417 -0.16025,-0.15392 -0.36628,-0.23162 -0.61809,-0.23162 -0.16025,0 -0.46243,0.0454 -0.90425,0.13633 l -0.0755,-0.55997 z"
         style="fill:#4d4d4d;fill-opacity:1;fill-rule:nonzero;stroke:none"
         id="path3610-3-2-2"
         inkscape:connector-curvature="0" />
      <path
         d="m 250.20129,184.73902 -0.91913,4.05472 1.8394,0 -0.19572,0.94551 -1.82452,0 -2.00537,8.82334 c -0.22091,0.93965 -0.33194,1.55094 -0.33194,1.83533 0,0.16711 0.0332,0.29611 0.0984,0.38407 0.0652,0.0908 0.1385,0.13633 0.21862,0.13633 0.19001,0 0.44755,-0.17444 0.76805,-0.5204 0.19114,-0.2067 0.60893,-0.81799 1.25221,-1.83533 l 0.39145,0.36794 c -0.72339,1.33839 -1.40215,2.27657 -2.03398,2.81896 -0.43267,0.38407 -0.87449,0.57757 -1.32776,0.57757 -0.3411,0 -0.62038,-0.13779 -0.83557,-0.41486 -0.21747,-0.27705 -0.32393,-0.6274 -0.32393,-1.05252 0,-0.53946 0.12477,-1.36477 0.37658,-2.47007 l 1.94356,-8.65036 -1.7627,0 0.11904,-0.57757 c 0.85617,-0.30931 1.56698,-0.7608 2.13471,-1.35157 0.56772,-0.5937 1.20299,-1.61691 1.90693,-3.07109 l 0.51164,0 z"
         style="fill:#4d4d4d;fill-opacity:1;fill-rule:nonzero;stroke:none"
         id="path3614-4-5-8"
         inkscape:connector-curvature="0" />
      <path
         d="m 262.81554,192.07579 c 0,-0.92648 -0.17626,-1.63451 -0.52766,-2.12266 -0.35254,-0.48961 -0.80924,-0.73442 -1.3724,-0.73442 -1.13545,0 -2.18507,1.0496 -3.14998,3.14585 -0.96491,2.0992 -1.44794,4.18373 -1.44794,6.25652 0,0.93819 0.18886,1.66676 0.56544,2.18129 0.37658,0.516 0.84702,0.77107 1.41017,0.77107 1.09539,0 2.12212,-1.0408 3.08245,-3.12534 0.95919,-2.08599 1.43993,-4.20863 1.43993,-6.37231 m 1.94356,1.04226 c 0,1.4923 -0.30789,2.96993 -0.92599,4.42999 -0.61809,1.46152 -1.47999,2.62252 -2.58569,3.48594 -1.1057,0.86196 -2.18049,1.29294 -3.22553,1.29294 -1.06565,0 -1.93555,-0.43684 -2.60859,-1.312 -0.67417,-0.87515 -1.01069,-2.00244 -1.01069,-3.37892 0,-1.46739 0.32964,-2.9377 0.98895,-4.41095 0.657,-1.4747 1.53607,-2.63863 2.63718,-3.49473 1.09999,-0.8561 2.16334,-1.28414 3.18891,-1.28414 1.03474,0 1.88404,0.43098 2.54678,1.29293 0.66388,0.86342 0.99467,1.98925 0.99467,3.37894"
         style="fill:#4d4d4d;fill-opacity:1;fill-rule:nonzero;stroke:none"
         id="path3618-2-6-5"
         inkscape:connector-curvature="0" />
      <path
         d="m 280.73317,195.59017 c 1.15606,-0.16713 2.09465,-0.45739 2.81919,-0.86931 0.9546,-0.54092 1.67,-1.19325 2.14845,-1.95992 0.47615,-0.76519 0.71538,-1.48937 0.71538,-2.17101 0,-0.42513 -0.10302,-0.76667 -0.30905,-1.02321 -0.20488,-0.258 -0.5002,-0.387 -0.8825,-0.387 -0.79435,0 -1.63451,0.54093 -2.52388,1.6213 -0.89051,1.08184 -1.54524,2.67823 -1.9676,4.78915 m -0.0756,0.73295 c -0.0606,0.50281 -0.0904,0.91473 -0.0904,1.23577 0,0.88833 0.2461,1.64475 0.73828,2.26923 0.49219,0.62301 1.09083,0.93525 1.79476,0.93525 0.55285,0 1.08739,-0.1466 1.60591,-0.44271 0.51622,-0.29759 1.28769,-0.94699 2.31327,-1.95114 l 0.24151,0.44418 c -1.8394,2.34253 -3.59868,3.51379 -5.27554,3.51379 -1.13546,0 -1.99163,-0.46029 -2.56394,-1.38089 -0.57231,-0.92059 -0.85961,-1.93354 -0.85961,-3.0403 0,-1.48058 0.35597,-2.99926 1.07136,-4.55606 0.71309,-1.55827 1.60933,-2.76326 2.68985,-3.61934 1.07937,-0.8561 2.19309,-1.28415 3.33999,-1.28415 0.82184,0 1.43535,0.21109 1.83025,0.63767 0.39833,0.42365 0.59749,0.93233 0.59749,1.52456 0,0.82385 -0.25754,1.61543 -0.76918,2.37477 -0.68449,0.97777 -1.67916,1.7767 -2.98517,2.39239 -0.87563,0.40019 -2.10152,0.71535 -3.67879,0.94698"
         style="fill:#4d4d4d;fill-opacity:1;fill-rule:nonzero;stroke:none"
         id="path3622-5-8-3"
         inkscape:connector-curvature="0" />
      <path
         d="m 308.96184,191.7093 c 0,-0.79746 -0.17169,-1.42635 -0.51851,-1.88225 -0.34911,-0.45736 -0.7978,-0.68603 -1.35065,-0.68603 -0.88479,0 -1.61391,0.56729 -2.18622,1.69898 -0.57231,1.13316 -0.85846,2.31029 -0.85846,3.53287 0,0.76081 0.18313,1.38527 0.54941,1.87344 0.36742,0.48961 0.81153,0.73442 1.33577,0.73442 0.41092,0 0.81153,-0.14659 1.19727,-0.43539 0.38688,-0.28878 0.71081,-0.68898 0.97293,-1.19765 0.26211,-0.5072 0.46929,-1.15514 0.62611,-1.9394 0.15452,-0.78573 0.23235,-1.35158 0.23235,-1.69899 m -5.57772,10.25112 c -0.63297,0.37382 -1.11142,0.84584 -1.43078,1.41902 -0.32164,0.57316 -0.48302,1.14195 -0.48302,1.70925 0,0.65526 0.23007,1.19618 0.69364,1.6213 0.67189,0.61715 1.65168,0.92646 2.93937,0.92646 1.116,0 2.06833,-0.24187 2.85697,-0.72415 0.78864,-0.4823 1.18239,-1.10971 1.18239,-1.88225 0,-0.38553 -0.14536,-0.75347 -0.4361,-1.09943 -0.29302,-0.34741 -0.86075,-0.63181 -1.70319,-0.85023 -0.45327,-0.11575 -1.65855,-0.48962 -3.61928,-1.11997 m 9.6331,-12.58779 -0.34682,1.54507 -1.9447,0 c 0.15223,0.54092 0.22548,1.04226 0.22548,1.50549 0,1.31346 -0.43609,2.48472 -1.30943,3.5138 -0.87678,1.03053 -2.08206,1.59637 -3.61929,1.69899 -0.82298,0.32251 -1.44222,0.70071 -1.85313,1.13902 -0.15224,0.16857 -0.22664,0.33569 -0.22664,0.50134 0,0.1935 0.0699,0.37381 0.21061,0.54092 0.14079,0.16858 0.49219,0.3357 1.05534,0.50281 l 2.26176,0.67579 c 1.2545,0.37381 2.08435,0.81797 2.48611,1.33105 0.40291,0.52919 0.60322,1.14048 0.60322,1.83385 0,0.81212 -0.23694,1.55827 -0.70852,2.23992 -0.47159,0.68166 -1.1595,1.21378 -2.06489,1.59198 -0.90311,0.38114 -1.90923,0.57025 -3.01378,0.57025 -0.96606,0 -1.84284,-0.14806 -2.63148,-0.44418 -0.78864,-0.29611 -1.35751,-0.69045 -1.70319,-1.18592 -0.34681,-0.49694 -0.5208,-1.00855 -0.5208,-1.53482 0,-0.42511 0.11332,-0.86928 0.33996,-1.33251 0.22548,-0.46469 0.50477,-0.8429 0.83556,-1.14048 0.2129,-0.19203 0.80467,-0.64207 1.77989,-1.35157 -0.3514,-0.35915 -0.52767,-0.75202 -0.52767,-1.17566 0,-0.4002 0.15566,-0.82532 0.467,-1.27389 0.31019,-0.4515 0.97865,-0.94697 2.00536,-1.4879 -0.85388,-0.20669 -1.53378,-0.66259 -2.03626,-1.37062 -0.50135,-0.70805 -0.7543,-1.49231 -0.7543,-2.35573 0,-1.41608 0.48302,-2.67969 1.44908,-3.79379 0.96376,-1.11263 2.25604,-1.66968 3.87452,-1.66968 0.58147,0 1.05992,0.0747 1.43078,0.22283 0.37086,0.14659 0.73255,0.3826 1.08624,0.70364 l 3.14999,0 z"
         style="fill:#4d4d4d;fill-opacity:1;fill-rule:nonzero;stroke:none"
         id="path3626-6-1-8"
         inkscape:connector-curvature="0" />
      <path
         d="m 322.66154,189.21842 c -0.49218,0 -1.01985,0.29612 -1.58301,0.88835 -0.79322,0.85023 -1.49945,2.10798 -2.11639,3.77473 -0.61924,1.66527 -0.92829,3.1693 -0.92829,4.50768 0,0.68311 0.13163,1.21963 0.40061,1.61104 0.26555,0.39433 0.57002,0.58928 0.91227,0.58928 0.84244,0 1.76156,-0.80332 2.75852,-2.41289 1.32548,-2.12411 1.98935,-4.31124 1.98935,-6.56437 0,-0.83703 -0.12935,-1.44539 -0.38459,-1.82359 -0.25754,-0.37968 -0.6055,-0.57025 -1.04847,-0.57025 m 4.16068,-0.77106 -2.27665,10.1148 -0.25639,1.3721 c -0.0206,0.12753 -0.0297,0.23748 -0.0297,0.3269 0,0.15539 0.0344,0.29025 0.1053,0.40606 0.0607,0.0895 0.14079,0.13486 0.24152,0.13486 0.10072,0 0.23007,-0.0762 0.39145,-0.23161 0.30219,-0.28292 0.70852,-0.88101 1.22017,-1.79428 l 0.39375,0.36648 c -0.54255,1.02907 -1.09769,1.81774 -1.66542,2.36451 -0.56773,0.54679 -1.09311,0.81945 -1.57614,0.81945 -0.33079,0 -0.58147,-0.10848 -0.74629,-0.3269 -0.16597,-0.21989 -0.24838,-0.52919 -0.24838,-0.92645 0,-0.48962 0.0847,-1.13316 0.25754,-1.93061 l 0.23922,-1.11996 c -1.01528,1.69899 -1.95043,2.88931 -2.80431,3.57097 -0.61237,0.48814 -1.21558,0.73295 -1.8085,0.73295 -0.57231,0 -1.06563,-0.30198 -1.47769,-0.9074 -0.41093,-0.60395 -0.61695,-1.43366 -0.61695,-2.48912 0,-1.58319 0.37085,-3.25433 1.11599,-5.01049 0.74172,-1.75617 1.68717,-3.16198 2.83179,-4.21891 0.89509,-0.83556 1.73982,-1.25335 2.53304,-1.25335 0.47387,0 0.86762,0.15685 1.18468,0.47202 0.31591,0.31664 0.55514,0.83998 0.71538,1.57293 l 0.42351,-1.699 1.85314,-0.34595 z"
         style="fill:#4d4d4d;fill-opacity:1;fill-rule:nonzero;stroke:none"
         id="path3630-4-3-0"
         inkscape:connector-curvature="0" />
      <path
         d="m 335.92526,188.44676 -1.55325,6.79598 c 1.45709,-2.78083 2.57309,-4.60883 3.34571,-5.48252 0.77377,-0.87662 1.51891,-1.31346 2.232,-1.31346 0.39261,0 0.71311,0.16272 0.96492,0.49255 0.25068,0.32836 0.37544,0.75641 0.37544,1.28268 0,0.59222 -0.11332,1.38382 -0.34568,2.37477 l -1.41818,6.29464 c -0.16025,0.73296 -0.23808,1.17713 -0.23808,1.33105 0,0.14219 0.0286,0.26094 0.0893,0.35768 0.0595,0.0967 0.12477,0.14513 0.19688,0.14513 0.0893,0 0.20488,-0.0645 0.34567,-0.1935 0.41207,-0.42511 0.85847,-1.06132 1.3415,-1.91155 l 0.36285,0.27119 c -0.72455,1.32519 -1.40904,2.27217 -2.05002,2.83801 -0.45441,0.39873 -0.85503,0.5981 -1.20756,0.5981 -0.29074,0 -0.52309,-0.11282 -0.69364,-0.33863 -0.1694,-0.22429 -0.2564,-0.53067 -0.2564,-0.9162 0,-0.47642 0.13163,-1.2944 0.3926,-2.45247 l 1.35752,-6.02345 c 0.16939,-0.74614 0.25524,-1.32518 0.25524,-1.73711 0,-0.20522 -0.0492,-0.3694 -0.14994,-0.49107 -0.10073,-0.12314 -0.22549,-0.18471 -0.37773,-0.18471 -0.21061,0 -0.47157,0.12314 -0.78292,0.36795 -0.57458,0.43537 -1.17093,1.17273 -1.79476,2.20913 -0.62381,1.0364 -1.28082,2.3528 -1.97446,3.94917 -0.3617,0.84877 -0.66388,1.77522 -0.90539,2.77937 l -0.58833,2.47153 -1.74783,0 2.1267,-9.36426 c 0.24952,-1.11995 0.37543,-1.79574 0.37543,-2.02735 0,-0.21842 -0.0675,-0.40753 -0.20374,-0.56878 -0.13392,-0.16125 -0.30447,-0.24041 -0.50478,-0.24041 -0.10073,0 -0.2667,0.0176 -0.49676,0.0573 l -0.43839,0.0762 -0.0732,-0.5204 4.03935,-0.92646 z"
         style="fill:#4d4d4d;fill-opacity:1;fill-rule:nonzero;stroke:none"
         id="path3634-4-3-9"
         inkscape:connector-curvature="0" />
      <path
         d="m 352.69882,180.70482 -3.27017,14.51696 c 1.41704,-2.72808 2.5193,-4.53848 3.30795,-5.43415 0.78978,-0.8942 1.54523,-1.34131 2.26977,-1.34131 0.38231,0 0.69479,0.16418 0.94088,0.49255 0.24838,0.32835 0.37086,0.76227 0.37086,1.30319 0,0.65527 -0.11218,1.45419 -0.33309,2.39384 l -1.41704,6.25506 c -0.17856,0.75934 -0.27127,1.17713 -0.27127,1.25482 0,0.14073 0.0344,0.258 0.0984,0.34742 0.0653,0.0908 0.14307,0.13486 0.2335,0.13486 0.0996,0 0.21633,-0.0631 0.34567,-0.19203 0.44297,-0.43831 0.88593,-1.04373 1.32775,-1.8148 l 0.36285,0.26973 c -0.27241,0.52773 -0.64213,1.10969 -1.10914,1.74736 -0.467,0.63622 -0.87219,1.07745 -1.21329,1.32226 -0.34224,0.24481 -0.64213,0.36648 -0.90425,0.36648 -0.29187,0 -0.52652,-0.11874 -0.70852,-0.35622 -0.18084,-0.23894 -0.27241,-0.53799 -0.27241,-0.89713 0,-0.43831 0.13621,-1.2563 0.40748,-2.45248 l 1.34264,-5.98533 c 0.17054,-0.74615 0.25525,-1.33252 0.25525,-1.75763 0,-0.20523 -0.0469,-0.36648 -0.14308,-0.48229 -0.0961,-0.11575 -0.2232,-0.17444 -0.38459,-0.17444 -0.22092,0 -0.47616,0.10988 -0.76918,0.32983 -0.5208,0.41192 -1.12859,1.18299 -1.82453,2.31614 -0.19,0.30931 -0.81268,1.55681 -1.86801,3.74542 -0.33079,0.69484 -0.60207,1.45418 -0.81383,2.27803 l -0.73827,3.06962 -1.74784,0 3.82761,-17.08523 0.40634,-1.85438 c 0,-0.26973 -0.0824,-0.50574 -0.24838,-0.70364 -0.16483,-0.19936 -0.36857,-0.29904 -0.61008,-0.29904 -0.14079,0 -0.3514,0.0309 -0.63298,0.0953 l -0.2564,0.0382 0,-0.57757 4.03936,-0.86929 z"
         style="fill:#4d4d4d;fill-opacity:1;fill-rule:nonzero;stroke:none"
         id="path3638-8-7-4"
         inkscape:connector-curvature="0" />
      <path
         d="m 363.65533,195.59017 c 1.15606,-0.16713 2.09694,-0.45739 2.81919,-0.86931 0.95462,-0.54092 1.67229,-1.19325 2.14845,-1.95992 0.47845,-0.76519 0.71767,-1.48937 0.71767,-2.17101 0,-0.42513 -0.1053,-0.76667 -0.31133,-1.02321 -0.20489,-0.258 -0.49791,-0.387 -0.88021,-0.387 -0.79436,0 -1.63681,0.54093 -2.52617,1.6213 -0.88823,1.08184 -1.54523,2.67823 -1.9676,4.78915 m -0.0732,0.73295 c -0.0607,0.50281 -0.0927,0.91473 -0.0927,1.23577 0,0.88833 0.24609,1.64475 0.74056,2.26923 0.49219,0.62301 1.08853,0.93525 1.79247,0.93525 0.55285,0 1.08968,-0.1466 1.6059,-0.44271 0.51851,-0.29759 1.28999,-0.94699 2.31327,-1.95114 l 0.24152,0.44418 c -1.83711,2.34253 -3.59639,3.51379 -5.27554,3.51379 -1.13546,0 -1.99049,-0.46029 -2.5628,-1.38089 -0.57231,-0.92059 -0.85961,-1.93354 -0.85961,-3.0403 0,-1.48058 0.35712,-2.99926 1.07022,-4.55606 0.7131,-1.55827 1.61162,-2.76326 2.69214,-3.61934 1.07937,-0.8561 2.19308,-1.28415 3.3377,-1.28415 0.82413,0 1.43535,0.21109 1.83253,0.63767 0.39604,0.42365 0.59521,0.93233 0.59521,1.52456 0,0.82385 -0.25755,1.61543 -0.76919,2.37477 -0.68448,0.97777 -1.67916,1.7767 -2.98516,2.39239 -0.87334,0.40019 -2.10152,0.71535 -3.67652,0.94698"
         style="fill:#4d4d4d;fill-opacity:1;fill-rule:nonzero;stroke:none"
         id="path3642-6-9-0"
         inkscape:connector-curvature="0" />
      <path
         d="m 388.6737,188.44676 -1.52235,6.73734 c 0.67304,-1.58318 1.24992,-2.7735 1.73295,-3.57244 0.73256,-1.23576 1.45252,-2.13582 2.15647,-2.70313 0.41206,-0.30785 0.84358,-0.46177 1.29455,-0.46177 0.38231,0 0.7028,0.15686 0.9592,0.47202 0.25524,0.31665 0.38459,0.72417 0.38459,1.22551 0,0.48962 -0.087,1.12729 -0.25754,1.91302 l -0.82871,3.78352 c 1.26481,-3.03737 2.4678,-5.16734 3.60326,-6.38992 0.63297,-0.66845 1.25679,-1.00415 1.86916,-1.00415 0.3514,0 0.64213,0.15392 0.87449,0.46177 0.23007,0.30931 0.34567,0.79159 0.34567,1.44978 0,0.57758 -0.071,1.19619 -0.20946,1.85146 l -1.28311,5.81233 c -0.27929,1.26216 -0.42008,1.96286 -0.42008,2.10506 0,0.14073 0.0332,0.258 0.10416,0.34742 0.0492,0.0777 0.10988,0.11434 0.18199,0.11434 0.0801,0 0.22091,-0.0953 0.42236,-0.28878 0.44068,-0.43685 0.8539,-1.01588 1.2339,-1.73859 l 0.39375,0.32985 c -0.1923,0.39726 -0.53682,0.94698 -1.03358,1.64036 -0.49791,0.69631 -0.91799,1.16833 -1.2671,1.419 -0.34682,0.25214 -0.67075,0.37675 -0.97063,0.37675 -0.27243,0 -0.49791,-0.12168 -0.6799,-0.36649 -0.18086,-0.2448 -0.27014,-0.54092 -0.27014,-0.88834 0,-0.47642 0.15453,-1.43513 0.46701,-2.8776 l 1.07136,-4.80673 c 0.23923,-1.09356 0.36628,-1.70486 0.37543,-1.83385 0.0308,-0.1803 0.0446,-0.36061 0.0446,-0.54093 0,-0.25654 -0.0446,-0.45736 -0.13392,-0.59809 -0.0916,-0.12753 -0.19687,-0.19351 -0.31705,-0.19351 -0.32279,0 -0.66847,0.21256 -1.04046,0.63767 -1.06564,1.26216 -2.06489,3.03152 -3.00004,5.30955 -0.61238,1.5055 -1.19155,3.4361 -1.7341,5.79182 l -1.76157,0 2.00309,-9.03589 c 0.21175,-0.97777 0.31705,-1.6345 0.31705,-1.96872 0,-0.2712 -0.0423,-0.4691 -0.12705,-0.5981 -0.0881,-0.129 -0.19,-0.1935 -0.31134,-0.1935 -0.26097,0 -0.53224,0.12314 -0.81382,0.36648 -0.47158,0.38701 -1.0748,1.21671 -1.80849,2.49059 -0.73371,1.27388 -1.30144,2.49646 -1.70319,3.66772 -0.20145,0.54092 -0.66388,2.29708 -1.38614,5.27142 l -1.73523,0 2.15759,-9.69262 0.28616,-1.25482 c 0.0493,-0.17885 0.0732,-0.31517 0.0732,-0.40459 0,-0.21989 -0.0756,-0.41633 -0.23235,-0.58931 -0.15568,-0.17444 -0.35484,-0.25946 -0.59406,-0.25946 -0.10073,0 -0.37773,0.0573 -0.82985,0.17298 l -0.10759,-0.55998 4.02676,-0.92646 z"
         style="fill:#4d4d4d;fill-opacity:1;fill-rule:nonzero;stroke:none"
         id="path3646-1-8-6"
         inkscape:connector-curvature="0" />
      <path
         d="m 410.89095,189.21842 c -0.49219,0 -1.01985,0.29612 -1.583,0.88835 -0.79322,0.85023 -1.49945,2.10798 -2.1164,3.77473 -0.61924,1.66527 -0.92829,3.1693 -0.92829,4.50768 0,0.68311 0.13163,1.21963 0.40062,1.61104 0.26555,0.39433 0.57002,0.58928 0.91226,0.58928 0.84244,0 1.76156,-0.80332 2.75853,-2.41289 1.32546,-2.12411 1.98934,-4.31124 1.98934,-6.56437 0,-0.83703 -0.12934,-1.44539 -0.38459,-1.82359 -0.25754,-0.37968 -0.6055,-0.57025 -1.04847,-0.57025 m 4.16069,-0.77106 -2.27665,10.1148 -0.25639,1.3721 c -0.0206,0.12753 -0.0297,0.23748 -0.0297,0.3269 0,0.15539 0.0344,0.29025 0.10531,0.40606 0.0606,0.0895 0.14079,0.13486 0.24151,0.13486 0.10073,0 0.23007,-0.0762 0.39146,-0.23161 0.30218,-0.28292 0.70852,-0.88101 1.22016,-1.79428 l 0.39375,0.36648 c -0.54255,1.02907 -1.09769,1.81774 -1.66542,2.36451 -0.56773,0.54679 -1.09311,0.81945 -1.57614,0.81945 -0.33079,0 -0.58146,-0.10848 -0.74629,-0.3269 -0.16597,-0.21989 -0.24838,-0.52919 -0.24838,-0.92645 0,-0.48962 0.0847,-1.13316 0.25754,-1.93061 l 0.23922,-1.11996 c -1.01527,1.69899 -1.95042,2.88931 -2.80431,3.57097 -0.61237,0.48814 -1.21559,0.73295 -1.80849,0.73295 -0.57231,0 -1.06564,-0.30198 -1.47771,-0.9074 -0.41091,-0.60395 -0.61695,-1.43366 -0.61695,-2.48912 0,-1.58319 0.37086,-3.25433 1.11601,-5.01049 0.74171,-1.75617 1.68716,-3.16198 2.83178,-4.21891 0.89509,-0.83556 1.73982,-1.25335 2.53304,-1.25335 0.47387,0 0.86762,0.15685 1.18468,0.47202 0.31592,0.31664 0.55514,0.83998 0.71538,1.57293 l 0.42351,-1.699 1.85314,-0.34595 z"
         style="fill:#4d4d4d;fill-opacity:1;fill-rule:nonzero;stroke:none"
         id="path3650-7-3-1"
         inkscape:connector-curvature="0" />
      <path
         d="m 424.21499,182.5 c 0.33079,0 0.61007,0.14512 0.83557,0.4339 0.22663,0.29026 0.33995,0.64647 0.33995,1.07159 0,0.40019 -0.1156,0.74615 -0.34567,1.04226 -0.23351,0.29612 -0.50821,0.44418 -0.82985,0.44418 -0.31248,0 -0.58376,-0.14806 -0.81383,-0.44418 -0.23236,-0.29611 -0.34681,-0.64207 -0.34681,-1.04226 0,-0.42512 0.11216,-0.78133 0.33766,-1.07159 0.22663,-0.28878 0.50134,-0.4339 0.82298,-0.4339 m 0.16597,5.94721 -2.32129,10.46222 c -0.15223,0.70951 -0.22778,1.13316 -0.22778,1.27389 0,0.15539 0.0378,0.28439 0.11446,0.387 0.0756,0.10261 0.16254,0.15539 0.26326,0.15539 0.10989,0 0.2461,-0.0835 0.40749,-0.25067 0.45098,-0.43831 0.89853,-1.07599 1.34035,-1.91303 l 0.42351,0.34742 c -0.53225,1.04227 -1.15607,1.91889 -1.86916,2.62547 -0.53225,0.52918 -1.03932,0.79158 -1.52234,0.79158 -0.32279,0 -0.58376,-0.12166 -0.78521,-0.36647 -0.20146,-0.24481 -0.30218,-0.55265 -0.30218,-0.92499 0,-0.37381 0.0962,-0.9851 0.28615,-1.83533 l 1.52235,-6.69923 c 0.25295,-1.09357 0.37886,-1.78255 0.37886,-2.06547 0,-0.21842 -0.0607,-0.3958 -0.18199,-0.53066 -0.12019,-0.13486 -0.28616,-0.20377 -0.49562,-0.20377 -0.17284,0 -0.52309,0.0514 -1.05534,0.15539 l 0,-0.57903 4.02448,-0.82971 z"
         style="fill:#4d4d4d;fill-opacity:1;fill-rule:nonzero;stroke:none"
         id="path3654-5-9-5"
         inkscape:connector-curvature="0" />
      <path
         d="m 437.26638,188.44676 -0.70853,4.57511 -0.43838,0 c -0.04,-1.33838 -0.26098,-2.31028 -0.66388,-2.91423 -0.40291,-0.60543 -0.90311,-0.90741 -1.50632,-0.90741 -0.48303,0 -0.86533,0.17004 -1.14462,0.51014 -0.28271,0.34156 -0.4235,0.75055 -0.4235,1.22552 0,0.32249 0.0538,0.63474 0.16597,0.93671 0.10988,0.30345 0.35482,0.72416 0.73713,1.26508 1.01528,1.40288 1.67228,2.46568 1.96759,3.18544 0.29761,0.72123 0.44526,1.397 0.44526,2.02736 0,1.04225 -0.33537,1.96725 -1.01069,2.77056 -0.67304,0.80332 -1.52235,1.20645 -2.54678,1.20645 -0.56315,0 -1.211,-0.17298 -1.94471,-0.52187 -0.26096,-0.11574 -0.45784,-0.17297 -0.58718,-0.17297 -0.3514,0 -0.61695,0.23162 -0.79894,0.69484 l -0.43725,0 0.7234,-4.84631 0.42236,0 c 0.0492,1.50549 0.29531,2.57561 0.73828,3.20596 0.44297,0.63034 1.05076,0.94551 1.82452,0.94551 0.58375,0 1.04847,-0.21256 1.39414,-0.6362 0.34683,-0.42513 0.51966,-0.94699 0.51966,-1.5656 0,-0.39727 -0.0607,-0.76374 -0.18199,-1.09944 -0.22091,-0.60542 -0.67647,-1.43511 -1.37011,-2.49058 -0.69249,-1.05547 -1.14233,-1.84706 -1.34149,-2.37479 -0.20031,-0.52771 -0.30103,-1.05545 -0.30103,-1.58318 0,-0.96457 0.27241,-1.77963 0.81954,-2.44221 0.54827,-0.66261 1.25451,-0.99389 2.11984,-0.99389 0.25066,0 0.47615,0.019 0.67761,0.0573 0.10873,0.0382 0.36627,0.15536 0.76918,0.34742 0.40176,0.1935 0.66846,0.29023 0.7978,0.29023 0.33308,0 0.61466,-0.23306 0.84472,-0.69483 l 0.4384,0 z"
         style="fill:#4d4d4d;fill-opacity:1;fill-rule:nonzero;stroke:none"
         id="path3658-7-1-7"
         inkscape:connector-curvature="0" />
      <path
         d="m 442.97607,199.2765 c 0.33079,0 0.61236,0.14953 0.84243,0.44564 0.23236,0.29611 0.34911,0.65527 0.34911,1.08038 0,0.41192 -0.11904,0.76521 -0.35597,1.06278 -0.23694,0.29466 -0.51394,0.44272 -0.83557,0.44272 -0.33309,0 -0.61238,-0.14806 -0.84473,-0.44272 -0.23007,-0.29757 -0.34682,-0.65086 -0.34682,-1.06278 0,-0.42511 0.11675,-0.78427 0.34682,-1.08038 0.23235,-0.29611 0.51164,-0.44564 0.84473,-0.44564"
         style="fill:#4d4d4d;fill-opacity:1;fill-rule:nonzero;stroke:none"
         id="path3662-0-7-4"
         inkscape:connector-curvature="0" />
    </g>
  </g>
</svg>
