<?xml version="1.0" encoding="utf-8"?>
<!-- Generator: Adobe Illustrator 16.0.0, SVG Export Plug-In . SVG Version: 6.00 Build 0)  -->
<!DOCTYPE svg PUBLIC "-//W3C//DTD SVG 1.1//EN" "http://www.w3.org/Graphics/SVG/1.1/DTD/svg11.dtd">
<svg version="1.1" id="Layer_1" xmlns="http://www.w3.org/2000/svg" xmlns:xlink="http://www.w3.org/1999/xlink" x="0px" y="0px"
	 width="878px" height="284px" viewBox="0 0 878 284" enable-background="new 0 0 878 284" xml:space="preserve">
<g>
	<g>
		<linearGradient id="SVGID_1_" gradientUnits="userSpaceOnUse" x1="342.2368" y1="269.1553" x2="342.2368" y2="26.8452">
			<stop  offset="0" style="stop-color:#CC0000"/>
			<stop  offset="1" style="stop-color:#D32300"/>
		</linearGradient>
		<path fill="url(#SVGID_1_)" d="M306.775,74.048h-21.423c-2.151,0-3.912,1.761-3.912,3.913v83.852c0,2.152-1.76,3.913-3.912,3.913
			h-6.459c-2.151,0-3.912-1.761-3.912-3.913V77.961c0-2.152-1.76-3.913-3.912-3.913h-21.432c-2.152,0-3.912,1.761-3.912,3.913
			v97.782c0,2.154,0.646,8.62,5.713,13.69c5.067,5.07,11.704,5.563,13.855,5.563h12.375c2.152,0,4.623-0.394,7.177-1.383
			c1.838-0.715,3.948-2.161,4.417-2.506c0,0.356,0.012,0.523,0.012,0.918c0,1.37,1.05,2.971,2.954,2.971h22.368
			c2.152,0,3.912-1.761,3.912-3.913V77.961C310.687,75.809,308.927,74.048,306.775,74.048z M373.453,74.048h-33.829
			c-4.156,0-9.912,1.631-13.95,5.991c-4.038,4.358-5.293,9.574-5.293,13.261v97.784c0,2.152,1.76,3.913,3.911,3.913h21.663
			c2.153,0,3.913-1.761,3.913-3.913v-37.9c0-2.152,1.76-3.913,3.911-3.913h16.571c2.152,0,3.913-1.762,3.913-3.917v-21.671
			c0-2.152-1.76-3.914-3.913-3.914h-16.571c-2.151,0-3.911-1.76-3.911-3.913v-8.388c0-2.153,1.76-3.914,3.911-3.914h19.674
			c2.152,0,3.912-1.761,3.912-3.914V77.961C377.365,75.809,375.605,74.048,373.453,74.048z M438.882,74.048h-33.83
			c-4.155,0-9.911,1.631-13.949,5.991c-4.038,4.358-5.294,9.574-5.294,13.261v97.784c0,2.152,1.76,3.913,3.913,3.913h21.663
			c2.152,0,3.911-1.761,3.911-3.913v-37.9c0-2.152,1.76-3.913,3.913-3.913h16.569c2.152,0,3.913-1.762,3.913-3.917v-21.671
			c0-2.152-1.761-3.914-3.913-3.914h-16.569c-2.153,0-3.913-1.76-3.913-3.913v-8.388c0-2.153,1.76-3.914,3.913-3.914h19.672
			c2.152,0,3.912-1.761,3.912-3.914V77.961C442.794,75.809,441.034,74.048,438.882,74.048z M587.372,165.486h-12.85
			c-2.151,0-3.91-1.762-3.91-3.913v-54.105c0-2.153,1.759-3.914,3.91-3.914h12.139c2.151,0,3.912-1.761,3.912-3.914V77.961
			c0-2.152-1.761-3.913-3.912-3.913h-12.139c-2.151,0-3.91-1.761-3.91-3.914V30.758c0-2.152-1.761-3.913-3.913-3.913h-21.671
			c-2.152,0-3.912,1.761-3.912,3.913v39.376c0,2.153-1.76,3.914-3.911,3.914h-3.916c-2.153,0-3.913,1.761-3.913,3.913V99.64
			c0,2.153,1.76,3.914,3.913,3.914h3.916c2.151,0,3.911,1.761,3.911,3.914v68.275c0,4.447,1.436,8.557,4.93,12.869
			c3.496,4.313,9.712,6.385,14.41,6.385h26.916c2.151,0,3.912-1.761,3.912-3.913v-21.683
			C591.284,167.246,589.523,165.486,587.372,165.486z M224.445,26.845h-18.707c-2.152,0-4.656,1.595-5.567,3.547l-45.731,97.956
			c-0.912,1.952-1.657,1.786-1.657-0.369V30.758c0-2.152-1.76-3.909-3.912-3.902l-22.739,0.058c-2.152,0.009-4.645,1.612-5.54,3.572
			L13.017,265.595c-0.896,1.96,0.131,3.561,2.283,3.561h25.015c2.151,0,4.628-1.609,5.503-3.577l77.279-173.721
			c0.875-1.967,1.591-1.814,1.591,0.337v98.89c0,2.152,1.76,3.913,3.912,3.913h20.271c2.152,0,4.654-1.599,5.562-3.549
			l45.744-98.417c0.907-1.952,1.65-1.787,1.65,0.365v97.688c0,2.152,1.76,3.913,3.912,3.913h18.707c2.152,0,3.913-1.761,3.913-3.913
			V30.758C228.358,28.605,226.597,26.845,224.445,26.845z M501.774,74.048c0,0-43.938,0-46.105,0s-3.979,1.76-3.979,3.91v21.608
			c0,2.394,1.973,3.987,3.952,3.987h31.843c2.427,0,3.957,2.071,3.957,3.936v8.275c0,2.222-1.725,4.004-3.93,4.004
			c-2.203,0-26.049,0-26.049,0c-7.325,0-13.315,5.982-13.315,13.322v42.669c0,10.942,8.797,19.237,19.62,19.237h16.227
			c3.388,0,6.291-2.144,7.447-5.125c0,0,0,0.567,0,2.094c0,1.524,1.154,3.031,2.973,3.031h22.614c2.081,0,3.901-1.788,3.901-3.987
			c0-2.196,0-97.509,0-97.509C520.931,82.839,512.431,74.048,501.774,74.048z M491.442,162.595c0,1.73-1.402,3.131-3.131,3.131
			h-7.787c-1.728,0-3.129-1.4-3.129-3.131v-10.193c0-1.73,1.401-3.131,3.129-3.131h7.787c1.729,0,3.131,1.4,3.131,3.131V162.595z
			 M652.507,74.048h-33.531c-10.782,0-19.242,9.25-19.242,19.252v82.769c0,10.485,9.071,19.254,19.242,19.254h33.563
			c10.549,0,19.241-8.769,19.241-19.254V93.967C671.78,82.225,662.781,74.048,652.507,74.048z M642.39,162.355
			c0,1.728-1.4,3.131-3.129,3.131h-6.825c-1.729,0-3.128-1.403-3.128-3.131v-55.671c0-1.729,1.399-3.131,3.128-3.131h6.825
			c1.729,0,3.129,1.401,3.129,3.131V162.355z"/>
	</g>
</g>
<g>
	<g>
		<path d="M320.292,47.552c0,2.764,0,6.943-5.003,6.943c-5.017,0-5.017-4.349-5.017-6.943c0,0,0-17.796,0-20.097h-11.096
			c0,2.317,0,21.414,0,21.414c0,12.39,8.763,14.989,16.113,14.989c7.343,0,16.099-2.6,16.099-14.989c0,0,0-19.097,0-21.414h-11.096
			C320.292,29.756,320.292,47.552,320.292,47.552z M256.744,41.727l-3.086-0.701c-0.027-0.008-0.381-0.091-0.381-0.091
			c-1.087-0.247-3.351-0.763-3.351-3.075c0-1.968,1.732-3.345,4.212-3.345c2.362,0,4.756,0.785,7.265,2.292
			c0.69-1.838,2.2-5.859,2.738-7.292c-3.167-1.764-6.54-2.67-10.3-2.67c-7.459,0-15.012,4.433-15.012,12.906
			c0,6.6,6.125,8.417,8.759,8.895l3.094,0.578c1.211,0.226,3.73,0.696,3.73,3.367c0,2.47-2.465,3.594-4.757,3.594
			c-2.791,0-5.691-1.148-8.629-3.328c-0.773,2.005-2.518,6.525-3.124,8.095c3.88,1.786,8.649,2.907,12.795,2.907
			c7.23,0,15.011-3.877,15.011-12.389C265.709,46.297,262.776,43.109,256.744,41.727z M512.752,52.795
			c-0.559-0.829-1.194-1.333-1.813-1.822l-0.208-0.164c-0.309-0.248-0.487-0.626-0.487-1.028v-0.306
			c0-0.563,0.351-1.063,0.874-1.239c4.846-1.643,6.402-3.768,6.402-8.746c0-10.471-9.001-12.034-14.364-12.034c0,0-13.04,0-15.209,0
			v35.79h10.795c0-2.085,0-11.014,0-11.014c0-0.72,0.569-1.305,1.273-1.305h0.251c0.484,0,0.927,0.281,1.141,0.727
			c0,0,5.002,10.31,5.622,11.592h12.554C517.722,60.399,512.752,52.795,512.752,52.795z M500.971,44.465h-0.955
			c-0.704,0-1.273-0.585-1.273-1.304v-6.52c0-0.72,0.569-1.304,1.273-1.304h1.046c1.546,0,5.658,0,5.658,4.614
			C506.72,44.465,502.393,44.465,500.971,44.465z M440.985,54.062v-3.771c0-0.72,0.572-1.306,1.275-1.306c0,0,7.262,0,9.231,0v-7.37
			c-1.97,0-9.231,0-9.231,0c-0.703,0-1.275-0.584-1.275-1.304v-3.67c0-0.72,0.572-1.304,1.275-1.304c0,0,8.208,0,10.227,0v-7.883
			h-22.689v35.79h23.08v-7.879c-2.031,0-10.617,0-10.617,0C441.558,55.366,440.985,54.782,440.985,54.062z M382.854,27.455
			c0,0-13.817,0-16.004,0v35.79h10.591c0-2.053,0-10.258,0-10.258c0-0.721,0.571-1.306,1.275-1.306h6.974
			c6.964,0,11.121-4.272,11.121-11.429C396.812,32.119,391.726,27.455,382.854,27.455z M380.067,44.622h-1.35
			c-0.705,0-1.275-0.584-1.275-1.307v-6.674c0-0.72,0.571-1.304,1.275-1.304h1.299c1.724,0,6.301,0,6.301,4.459
			C386.317,42.999,384.214,44.622,380.067,44.622z"/>
	</g>
</g>
<g>
	<g>
		<linearGradient id="SVGID_2_" gradientUnits="userSpaceOnUse" x1="769.3945" y1="194.8975" x2="769.3945" y2="119.9683">
			<stop  offset="0" style="stop-color:#CC0000"/>
			<stop  offset="1" style="stop-color:#D32300"/>
		</linearGradient>
		<path fill="url(#SVGID_2_)" d="M733.807,119.968h-19.964c-2.451,0-5.849,1.013-8.229,3.704c-2.383,2.692-3.126,5.914-3.126,8.192
			v50.937c0,2.286,0.743,5.506,3.126,8.201c2.381,2.689,5.778,3.701,8.229,3.701h19.964c1.277,0,2.31-1.096,2.31-2.423v-13.39
			c0-1.336-1.032-2.424-2.31-2.424h-11.6c-1.281,0-2.315-1.08-2.315-2.415v-33.431c0-1.335,1.034-2.416,2.315-2.416h11.6
			c1.277,0,2.31-1.088,2.31-2.424v-13.39C736.116,121.062,735.084,119.968,733.807,119.968z M774.479,119.968h-19.795
			c-6.358,0-11.354,5.721-11.354,11.896v51.143c0,6.473,5.357,11.891,11.354,11.891h19.81c6.227,0,11.358-5.418,11.358-11.891
			v-50.729C785.853,125.027,780.538,119.968,774.479,119.968z M768.516,174.531c0,1.068-0.838,1.936-1.86,1.936h-4.026
			c-1.021,0-1.85-0.867-1.85-1.936v-34.393c0-1.067,0.828-1.934,1.85-1.934h4.026c1.022,0,1.86,0.867,1.86,1.934V174.531z
			 M858.245,123.409c-0.196-0.207-0.401-0.371-0.605-0.551c-0.142-0.126-0.275-0.268-0.416-0.378
			c-0.218-0.176-0.438-0.324-0.661-0.475c-0.145-0.104-0.293-0.207-0.438-0.297c-0.227-0.137-0.451-0.268-0.678-0.385
			c-0.139-0.069-0.275-0.142-0.414-0.207c-0.234-0.11-0.463-0.214-0.697-0.304c-0.111-0.041-0.218-0.082-0.332-0.124
			c-0.25-0.084-0.495-0.171-0.736-0.243c-0.033-0.007-0.062-0.011-0.093-0.021c-1.358-0.378-2.52-0.458-3.104-0.458h-9.085
			c-0.589,0-1.746,0.079-3.107,0.458c-0.027,0.01-0.055,0.014-0.091,0.021c-0.24,0.072-0.489,0.159-0.735,0.243
			c-0.114,0.042-0.222,0.083-0.336,0.124c-0.229,0.09-0.46,0.194-0.694,0.304c-0.139,0.064-0.275,0.137-0.417,0.207
			c-0.224,0.117-0.448,0.248-0.675,0.385c-0.146,0.09-0.292,0.193-0.437,0.297c-0.223,0.151-0.444,0.298-0.661,0.475
			c-0.141,0.11-0.274,0.252-0.416,0.378c-0.203,0.18-0.412,0.344-0.605,0.551c-0.041,0.042-0.069,0.086-0.11,0.131
			c-0.038-0.045-0.065-0.089-0.106-0.131c-0.196-0.207-0.403-0.371-0.606-0.551c-0.142-0.126-0.274-0.268-0.416-0.378
			c-0.216-0.176-0.437-0.324-0.661-0.475c-0.149-0.104-0.293-0.207-0.438-0.297c-0.227-0.137-0.451-0.268-0.68-0.385
			c-0.138-0.069-0.274-0.142-0.41-0.207c-0.239-0.11-0.47-0.214-0.699-0.304c-0.111-0.041-0.221-0.082-0.331-0.124
			c-0.251-0.084-0.496-0.171-0.741-0.243c-0.028-0.007-0.058-0.011-0.088-0.021c-1.36-0.378-2.521-0.458-3.105-0.458h-7.301
			c-0.503,0-1.043,0.051-1.598,0.137c-0.024,0.004-0.044,0.007-0.069,0.007c-0.559,0.093-1.133,0.227-1.728,0.414
			c-0.003,0.007-0.007,0.007-0.014,0.007c-0.034,0.013-0.072,0.027-0.105,0.04c-0.242,0.079-0.481,0.152-0.728,0.248
			c-1.077,0.44-2.318,1.343-2.603,1.556c0-0.227-0.009-0.333-0.009-0.565c0-0.005-0.004-0.02-0.004-0.027
			c0-0.018,0-0.036-0.005-0.051c-0.007-0.159-0.039-0.32-0.088-0.479c-0.023-0.079-0.058-0.151-0.097-0.229
			c-0.045-0.102-0.097-0.197-0.159-0.286c-0.05-0.077-0.094-0.146-0.151-0.219c-0.106-0.112-0.227-0.219-0.365-0.301
			c-0.012-0.008-0.033-0.011-0.047-0.018c-0.08-0.049-0.17-0.072-0.259-0.111c-0.069-0.021-0.123-0.062-0.199-0.076
			c-0.093-0.02-0.196-0.027-0.301-0.03c-0.026-0.005-0.044-0.018-0.071-0.018h-13.193c-0.22,0-0.435,0.041-0.641,0.106
			c-0.01,0.003-0.017,0.006-0.031,0.011c-0.943,0.304-1.639,1.221-1.639,2.306v69.89c0,1.082,0.692,1.996,1.633,2.301
			c0.012,0.006,0.021,0.006,0.027,0.013c0.21,0.063,0.424,0.109,0.65,0.109h12.636c0.213,0,0.41-0.039,0.603-0.096
			c0.004,0,0.007,0,0.01-0.007c0.979-0.281,1.7-1.212,1.7-2.32v-51.806c0-1.328,1.04-2.416,2.306-2.416h3.816
			c1.273,0,2.305,1.088,2.305,2.416v51.806c0,0.256,0.048,0.497,0.12,0.73c0.004,0.006,0.004,0.006,0.004,0.013
			c0.135,0.429,0.375,0.799,0.692,1.088c0.011,0.007,0.021,0.015,0.027,0.021c0.399,0.352,0.906,0.57,1.467,0.57h12.646
			c1.272,0,2.313-1.096,2.313-2.423v-52.025c0.114-1.225,1.07-2.196,2.262-2.196h3.813c1.272,0,2.306,1.088,2.306,2.416v51.806
			c0,0.256,0.052,0.497,0.121,0.73c0.003,0.006,0.003,0.006,0.003,0.013c0.135,0.429,0.375,0.799,0.693,1.088
			c0.011,0.007,0.021,0.015,0.027,0.021c0.402,0.352,0.908,0.57,1.466,0.57h12.646c1.274,0,2.313-1.096,2.313-2.423v-60.41
			C861.622,130.534,861.239,126.542,858.245,123.409z M694.574,178.801c0,0,0-2.334-2.228-2.334h-12.953c0,0-2.228,0-2.228,2.334
			v13.569c0,0,0,2.333,2.228,2.333h12.953c0,0,2.333,0,2.333-2.333h-0.105V178.801z"/>
	</g>
</g>
</svg>
