<?xml version="1.0" encoding="utf-8"?>
<!-- Generator: Adobe Illustrator 19.0.1, SVG Export Plug-In . SVG Version: 6.00 Build 0)  -->
<svg version="1.1" id="Layer_1" xmlns="http://www.w3.org/2000/svg" xmlns:xlink="http://www.w3.org/1999/xlink" x="0px" y="0px"
	 viewBox="0 0 156 57" enable-background="new 0 0 156 57" xml:space="preserve">
<g>
	<path fill-rule="evenodd" clip-rule="evenodd" fill="#D1FF10" d="M29.252,1.077c15.144,0,27.42,12.278,27.42,27.423
		c0,15.146-12.276,27.423-27.42,27.423c-15.144,0-27.42-12.277-27.42-27.423C1.832,13.356,14.108,1.077,29.252,1.077"/>
	<path fill-rule="evenodd" clip-rule="evenodd" fill="#6819CE" d="M79.324,24.674h-1.4v15.64c0,6.074-2.151,7.814-6.855,7.814
		c-4.369,0-7.178-2.27-7.178-8.027V28.426c0-2.484-1.232-3.752-3.528-3.752h-1.838v15.691c0,8.293,4.872,13.101,12.208,13.101
		c8.008,0,12.541-4.385,12.541-12.678V28.426C83.273,25.889,81.784,24.674,79.324,24.674 M97.435,37.942
		c8.346-8.823,10.81-10.673,13.61-12.786v-0.264h-3.528c-1.962,0-2.925,0.169-3.921,1.057c-2.909,2.592-7.392,7.028-10.977,11.307
		v-19.02c0-2.113-1.596-3.17-3.781-3.17h-1.567v34.234c0,2.586,1.065,3.802,3.304,3.802h2.045V39.316
		c3.471,4.12,7.057,8.611,10.977,12.359c1.064,1.058,2.24,1.585,3.921,1.585c2.689,0,3.024-0.897,3.415-2.324
		c-1.625-0.37-2.744-1.004-5.319-3.54C102.59,44.438,100.013,41.219,97.435,37.942 M150.246,29.385c2.689,0,3.922-1.164,3.922-2.908
		v-1.584h-10.306v-5.811h-0.879c-0.729,0-2.41,1.004-3.136,2.008c-0.842,1.161-1.29,2.746-1.29,4.384v18.385
		c0,6.497,2.913,9.773,9.577,9.773c3.473,0,5.695-1.268,5.695-3.646v-1.69h-0.281c-1.062,0.634-2.855,0.793-4.702,0.793
		c-3.248,0-4.929-1.692-4.929-5.705V29.385H150.246z M135.523,34.028c0-5.638-5.52-9.8-11.378-9.8c-7.998,0-14.08,6.06-14.08,15.173
		c0,8.111,5.856,14.063,14.137,14.063c6.759,0,10.137-2.265,10.137-5.216v-2.105h-0.281c-1.689,1.527-4.506,2.898-9.124,2.898
		c-5.632,0-9.124-3.319-9.631-8.008h7.436C133.045,41.034,135.523,38.98,135.523,34.028 M115.247,37.241l0.056-1.157
		c0.169-3.636,3.324-7.535,8.28-7.535c4.73,0,6.983,2.69,6.983,5.743c0,2.107-1.239,2.74-8.505,2.845L115.247,37.241z"/>
	<path fill="#6819CE" d="M40.58,16.729H26.508v33.206c0,2.163,1.343,3.168,3.248,3.168h2.093V22.068h8.783
		c5.817,0,9.038,3.107,9.038,6.892c0,3.801-3.37,7.156-7.635,7.156c-5.713,0-7.619-2.979-7.619-2.979s-0.579,0.786-0.579,2.311
		c0,3.083,2.831,5.735,8.475,5.735c7.044-0.139,12.709-5.557,12.709-12.224C55.022,22.205,49.566,16.729,40.58,16.729"/>
</g>
</svg>
